<svg width="70" height="70" viewBox="0 0 70 70" fill="none" xmlns="http://www.w3.org/2000/svg">
<g id="Group 878">
<path id="Vector" d="M24.4156 68.3004V58.305C23.7097 58.361 23.0373 58.473 22.3538 58.473C17.1245 58.473 11.9288 58.473 6.76679 58.473C5.80801 58.5325 4.84903 58.3599 3.9712 57.9697C3.09336 57.5796 2.32259 56.9835 1.72427 56.2319C0.702295 55.0175 0.104306 53.5028 0.0210207 51.9178C0.0210207 51.2454 0.312366 50.9205 1.01832 50.9093C1.72427 50.8981 2.29576 50.9093 2.93448 50.9093C3.19538 50.9369 3.45835 50.8814 3.68578 50.7506C3.91321 50.6197 4.09344 50.4203 4.20071 50.1809C6.66594 45.6016 9.13864 41.0185 11.6188 36.4316C11.7592 36.2425 11.8263 36.0088 11.8078 35.774C11.7892 35.5392 11.6863 35.319 11.518 35.1542C11.1232 34.6661 10.8507 34.0908 10.723 33.4762C10.5953 32.8616 10.6162 32.2253 10.7839 31.6204C10.9516 31.0154 11.2612 30.4593 11.6871 29.9981C12.1129 29.5369 12.6427 29.184 13.2324 28.9687C13.5126 28.8567 13.7031 28.767 13.7031 28.3972C13.7031 23.0409 13.7031 17.6847 13.7031 12.3284C13.7106 12.2127 13.7106 12.0967 13.7031 11.981C12.8626 11.981 12.0222 11.981 11.1818 11.981C11.1034 11.981 11.0025 12.1603 10.9577 12.2724C10.9129 12.3844 10.868 12.6533 10.812 12.8438C10.7 13.2584 10.4758 13.5498 9.994 13.5162C9.80616 13.5139 9.626 13.4413 9.48908 13.3127C9.35217 13.1841 9.26844 13.0088 9.25443 12.8214C9.176 12.5301 9.10876 12.2387 9.04153 11.925C7.37189 11.925 5.67985 11.925 4.06624 11.925C3.58644 11.9786 3.10193 11.8798 2.68152 11.6424C2.26111 11.4051 1.92617 11.0413 1.72427 10.6027C1.49041 10.1293 1.39177 9.60046 1.43923 9.07453C1.48668 8.54861 1.67838 8.04597 1.99321 7.62202C2.17997 7.3614 2.4278 7.15056 2.71497 7.00795C3.00215 6.86534 3.31991 6.79533 3.64043 6.80404C5.26524 6.80404 6.87885 6.80404 8.49245 6.80404C9.01912 6.80404 9.1872 6.62475 9.14238 6.14291C9.1256 5.96401 9.1256 5.78393 9.14238 5.60503C9.20961 4.98872 9.42252 4.80944 10.0276 4.80944C10.6327 4.80944 10.7784 4.95509 10.8568 5.59381C10.8568 5.95239 10.9241 6.29977 10.9577 6.71437H13.6919C13.7591 6.26615 13.8487 5.79553 13.9048 5.32489C13.9608 4.85425 14.2297 4.78703 14.6219 4.80944C15.0141 4.83185 15.3727 4.91029 15.4175 5.40334C15.4623 5.89638 15.496 6.24374 15.5408 6.71437H22.8132C22.7996 6.17158 22.8259 5.62854 22.8917 5.08958C22.9841 4.54938 23.2039 4.03897 23.5329 3.60059C23.8618 3.16221 24.2904 2.80846 24.7832 2.56863C25.276 2.3288 25.8188 2.20976 26.3668 2.2214C26.9147 2.23303 27.452 2.37502 27.9342 2.63555C28.3488 2.84846 28.5281 2.77002 28.7858 2.42264C29.2665 1.74192 29.9786 1.25953 30.7891 1.06568C31.5996 0.871827 32.4529 0.979772 33.1896 1.36931C33.3324 1.45422 33.4974 1.49427 33.6632 1.48428C33.8291 1.47429 33.9881 1.41473 34.1197 1.3133C34.5791 1.02195 35.0721 0.775431 35.5316 0.47288C35.9154 0.192408 36.3785 0.041214 36.8538 0.041214C37.3292 0.041214 37.7923 0.192408 38.1761 0.47288C38.7246 0.836735 39.2974 1.16246 39.8906 1.44776C39.9953 1.49122 40.1077 1.51359 40.2211 1.51359C40.3346 1.51359 40.4469 1.49122 40.5517 1.44776C41.2357 1.07584 42.0263 0.948625 42.7924 1.08719C43.5586 1.22576 44.2545 1.62179 44.765 2.20973C45.3074 2.83197 45.6129 3.62556 45.6278 4.45085C45.6278 5.20163 45.6278 5.9412 45.6278 6.69197H54.4354C54.4354 6.25496 54.5139 5.81792 54.5475 5.3809C54.5811 4.94389 54.9845 4.80943 55.3879 4.79823C55.7913 4.78702 56.1163 4.9215 56.1611 5.40334C56.2059 5.88518 56.2395 6.24376 56.2843 6.70319H59.0297L59.1306 5.44813C59.1306 4.98871 59.4443 4.82064 59.8813 4.79823C60.3184 4.77581 60.7106 4.86546 60.789 5.39212C60.8674 5.91878 60.8898 6.29977 60.9459 6.79282H61.8311C63.2878 6.79282 64.7334 6.79282 66.1901 6.79282C66.5162 6.79221 66.8389 6.85841 67.1384 6.98737C67.4379 7.11632 67.7078 7.30529 67.9315 7.54259C68.1551 7.77988 68.3278 8.0605 68.4388 8.3671C68.5498 8.67371 68.5968 8.99982 68.5769 9.3253C68.5973 9.66387 68.5469 10.003 68.429 10.321C68.3111 10.639 68.1283 10.9291 67.8922 11.1726C67.6561 11.4161 67.3718 11.6077 67.0575 11.7353C66.7433 11.863 66.4059 11.9237 66.0668 11.9138C64.5653 11.9138 63.0525 11.9138 61.5846 11.9138H61.0019C60.9573 12.2592 60.8708 12.5979 60.7442 12.9223C60.6118 13.1737 60.3929 13.3688 60.1279 13.4713C60.0508 13.5006 59.9682 13.5126 59.886 13.5063C59.8038 13.5 59.724 13.4757 59.6523 13.435C59.5806 13.3943 59.5188 13.3383 59.4712 13.271C59.4236 13.2037 59.3915 13.1267 59.3771 13.0455C59.1418 11.925 58.4022 11.8353 57.4833 11.925C57.0915 11.9475 56.6986 11.9475 56.3068 11.925C56.3068 12.1379 56.3068 12.2724 56.3068 12.4068V28.2628C56.2839 28.3899 56.3076 28.5209 56.3734 28.632C56.4393 28.7431 56.5429 28.8269 56.6653 28.8679C57.3062 29.0808 57.8827 29.4524 58.3412 29.9482C58.7996 30.444 59.1251 31.0478 59.2873 31.7033C59.4495 32.3588 59.4431 33.0448 59.2688 33.6971C59.0944 34.3495 58.7578 34.9471 58.2901 35.4343L58.066 35.7145L60.1951 39.6813C62.0664 43.1214 63.9378 46.5615 65.7979 50.0128C65.9118 50.2613 66.0977 50.47 66.3314 50.6118C66.5651 50.7536 66.8359 50.8221 67.1089 50.8084C67.7589 50.8084 68.42 50.8084 69.0699 50.8084C69.7199 50.8084 70 51.0886 70 51.7609C69.9962 53.2533 69.4833 54.6997 68.546 55.8611C67.6088 57.0224 66.3033 57.8292 64.8454 58.1481C64.2017 58.292 63.544 58.3634 62.8844 58.361H45.527V68.1771H68.7786C69.5406 68.1771 69.8991 68.4236 69.8991 68.9951C69.9134 69.1014 69.905 69.2096 69.8745 69.3124C69.8441 69.4153 69.7922 69.5106 69.7224 69.592C69.6526 69.6735 69.5664 69.7392 69.4694 69.7851C69.3724 69.8309 69.2668 69.8557 69.1596 69.8579C68.6889 69.914 68.2071 69.9476 67.7365 69.9588H53.3597L1.48895 69.8803C1.15712 69.9071 0.823589 69.8573 0.514067 69.7347C0.302025 69.621 0.129944 69.445 0.0210207 69.2304C-0.000529651 69.1516 -0.00557839 69.0692 0.00619037 68.9883C0.0179591 68.9074 0.0462921 68.8298 0.0894164 68.7604C0.132541 68.691 0.189528 68.6312 0.256813 68.5849C0.324098 68.5385 0.400231 68.5065 0.48045 68.4909C0.781685 68.3971 1.09504 68.348 1.41052 68.3452H24.4156V68.3004ZM15.5072 12.0819C15.5072 12.2163 15.5072 12.3284 15.5072 12.4292C15.5072 17.7631 15.5072 23.1007 15.5072 28.442C15.4932 28.5688 15.5267 28.6962 15.6012 28.7997C15.6757 28.9032 15.7859 28.9754 15.9106 29.0023C16.3136 29.1636 16.691 29.3825 17.0311 29.6522C17.4665 29.9854 17.8276 30.4057 18.0915 30.8863C18.3553 31.3668 18.5161 31.8971 18.5636 32.4433C18.611 32.9895 18.5441 33.5395 18.3671 34.0584C18.19 34.5772 17.9068 35.0535 17.5354 35.4567C17.4329 35.5473 17.3655 35.671 17.345 35.8062C17.3245 35.9414 17.3522 36.0795 17.4233 36.1963C19.586 40.1631 21.7263 44.1411 23.8777 48.1079C23.9674 48.2759 24.2027 48.3544 24.3596 48.4777L24.5053 48.3656V47.7829C24.5053 44.0402 24.5053 40.2976 24.5053 36.5773C24.5053 35.1878 24.5053 35.1878 25.906 35.0197C26.2309 35.0197 26.3654 34.8628 26.3542 34.5155C26.3553 33.3494 26.0869 32.1989 25.5698 31.1538C25.0095 30.0332 24.3596 28.9911 23.8217 27.8706C23.1067 26.3759 22.7645 24.7303 22.8244 23.0746C22.8244 22.3238 23.508 21.8868 24.0458 22.3014C24.3149 22.5439 24.4796 22.8813 24.5053 23.2426C24.6411 25.1208 25.2087 26.9423 26.1637 28.5653C27.2929 30.2659 27.9397 32.241 28.035 34.2802C28.035 34.8068 28.1583 34.9637 28.7074 34.9637C32.8086 34.9637 36.8987 34.9637 41.0335 34.9637C41.7619 34.9637 41.7507 34.9637 41.7955 34.2241C41.8045 32.2228 42.483 30.282 43.7229 28.711C44.5409 27.7249 45.4709 26.8508 46.3226 25.8984C47.7781 24.5073 48.8245 22.7439 49.3481 20.7998C49.7326 18.3433 49.8491 15.8522 49.6954 13.3705C49.6722 13.1806 49.6092 12.9977 49.5108 12.8336C49.4124 12.6695 49.2806 12.5279 49.124 12.418C48.6907 12.1546 48.1965 12.0079 47.6896 11.9922C44.9107 11.9922 42.0868 11.9922 39.3415 11.9922H38.9269C38.9023 12.8708 39.2229 13.724 39.8198 14.3692C40.4168 15.0143 41.2426 15.3999 42.1205 15.4435C43.0393 15.4435 43.9582 15.4435 44.877 15.4435C45.7959 15.4435 45.9192 15.7349 45.9416 16.5641C45.9416 16.9451 45.9416 17.3373 45.9416 17.6847C45.9416 19.0405 45.8743 19.0966 44.5185 19.231C43.074 19.3418 41.7 19.8999 40.5874 20.8277C39.4748 21.7555 38.679 23.007 38.3106 24.408C38.1475 25.0762 38.024 25.7535 37.9408 26.4362C37.8511 27.0189 37.5934 27.2879 37.1116 27.2879C36.6297 27.2879 36.316 26.9965 36.2599 26.3914C36.2487 26.2684 36.2487 26.1446 36.2599 26.0216C36.3117 24.3062 36.8719 22.6448 37.8694 21.2483C38.8669 19.8518 40.2568 18.783 41.8627 18.1777L43.1962 17.6174C41.8179 17.1804 40.4957 16.7434 39.1622 16.3736C38.8547 16.297 38.5302 16.3286 38.2433 16.4633C37.5889 16.7714 36.8544 16.8669 36.1429 16.7362C35.4315 16.6056 34.7788 16.2554 34.2765 15.7349C34.1421 15.5892 34.03 15.3987 33.8955 15.2194C31.5984 16.7658 29.8055 16.071 28.2927 14.1661C27.738 14.5497 27.0894 14.7753 26.4163 14.8187C25.7433 14.8621 25.0711 14.7218 24.4716 14.4126C24.4716 14.8384 24.4716 15.1858 24.4716 15.5332C24.4716 16.0598 24.4716 16.5977 24.4044 17.1244C24.4003 17.2231 24.3761 17.32 24.3334 17.409C24.2906 17.4981 24.2302 17.5776 24.1558 17.6426C24.0813 17.7076 23.9945 17.7567 23.9004 17.7871C23.8064 17.8174 23.7072 17.8283 23.6088 17.8191C23.4118 17.8229 23.2205 17.7524 23.0731 17.6216C22.9257 17.4908 22.8329 17.3093 22.8132 17.1132C22.7963 16.9193 22.7963 16.7244 22.8132 16.5305C22.8132 15.2194 22.8132 13.9084 22.8132 12.5973C22.8132 12.1715 22.7236 12.0034 22.2529 12.0146C20.1687 12.0146 18.0732 12.0146 15.9778 12.0146L15.5072 12.0819ZM43.6332 68.2892C43.6332 68.0202 43.6332 67.7625 43.6332 67.5048C43.6332 64.4344 43.6332 61.3641 43.6332 58.305C43.6442 58.0242 43.5903 57.7446 43.4756 57.4881C43.361 57.2315 43.1886 57.0049 42.9721 56.8258C42.2668 56.225 41.7009 55.4776 41.3139 54.6358C40.9268 53.794 40.7279 52.8779 40.731 51.9514C40.731 51.223 40.9887 50.9653 41.7171 50.9429C42.1426 50.9205 42.569 50.9205 42.9945 50.9429C43.4651 50.9429 43.6108 50.842 43.5996 50.3602C43.5996 48.2872 43.5996 46.2141 43.5996 44.1411C43.5996 43.973 43.5996 43.8049 43.5996 43.6256H26.3542C26.3257 43.6615 26.3065 43.7039 26.2982 43.7489C26.2982 45.99 26.2982 48.3208 26.2982 50.6067C26.2982 50.7188 26.5223 50.9093 26.6455 50.9205C27.1386 50.9205 27.6428 50.9205 28.1359 50.9205C28.9091 50.9205 29.1892 51.223 29.1668 52.041C29.1599 52.9432 28.9557 53.833 28.5686 54.648C28.1814 55.4629 27.6207 56.1833 26.9257 56.7586C26.6849 56.9504 26.4932 57.1968 26.3665 57.4774C26.2399 57.758 26.1819 58.0647 26.1973 58.3722C26.1973 61.1624 26.1973 63.975 26.1973 66.7428V68.3004L43.6332 68.2892ZM67.9942 52.6573H62.2681C62.0207 52.6897 61.7691 52.6549 61.5398 52.5565C61.2746 52.3856 61.0828 52.1218 61.0019 51.8169C61.0171 51.6855 61.0583 51.5585 61.1231 51.4432C61.1879 51.3279 61.2749 51.2267 61.3792 51.1453C61.4835 51.064 61.6029 51.0042 61.7305 50.9695C61.8581 50.9347 61.9913 50.9257 62.1225 50.9429H64.0722C63.949 50.6852 63.8817 50.5059 63.7921 50.3378C61.551 46.2029 59.3099 42.068 57.136 37.9444C56.9566 37.6148 56.7259 37.316 56.4524 37.0592C56.2563 36.8871 56.0253 36.7593 55.7753 36.6845C55.5253 36.6097 55.2621 36.5898 55.0037 36.6259C54.7452 36.6621 54.4976 36.7535 54.2778 36.894C54.0579 37.0345 53.8709 37.2208 53.7295 37.4401C51.4883 41.5713 49.2472 45.7024 47.0061 49.8335C46.8156 50.1809 46.6699 50.5395 46.4682 50.9541H56.0154V52.6573H42.6023C42.7004 53.4757 43.0222 54.2511 43.5324 54.8985C44.0527 55.52 44.71 56.0124 45.4528 56.3371C46.1955 56.6618 47.0033 56.8099 47.8129 56.7698H62.5931C63.0879 56.7697 63.582 56.736 64.0722 56.669C65.0786 56.5168 66.0071 56.0386 66.7156 55.3079C67.424 54.5772 67.8732 53.6343 67.9942 52.6237V52.6573ZM45.4485 48.332C45.8855 48.5449 45.9976 48.2647 46.1321 48.007C48.1939 44.1747 50.2557 40.3424 52.3512 36.5213C52.493 36.3321 52.563 36.0986 52.5486 35.8625C52.5342 35.6265 52.4365 35.4033 52.2727 35.2326C51.8425 34.7381 51.5426 34.1439 51.4005 33.504C51.2583 32.8641 51.2783 32.1988 51.4587 31.5687C51.6391 30.9385 51.9741 30.3633 52.4333 29.8956C52.8925 29.4278 53.4613 29.0823 54.088 28.8903C54.211 28.8537 54.3159 28.7725 54.3822 28.6627C54.4485 28.5529 54.4715 28.4222 54.4466 28.2964V12.4853C54.4562 12.321 54.4562 12.1564 54.4466 11.9922C53.6174 11.9922 52.8218 11.9922 52.0262 11.9922C51.5892 11.9922 51.4435 12.0931 51.4659 12.5525C51.522 14.1885 51.5332 15.8133 51.578 17.4494C51.7085 20.3861 50.7329 23.265 48.8438 25.5174C47.7233 26.7948 46.6699 28.0386 45.5606 29.2825C44.4362 30.482 43.7492 32.0256 43.6108 33.6639C43.51 34.8405 43.4988 34.8741 44.6417 35.0533C44.7604 35.052 44.8779 35.0765 44.9861 35.1251C45.0943 35.1736 45.1907 35.2452 45.2685 35.3347C45.3463 35.4243 45.4037 35.5297 45.4368 35.6436C45.4698 35.7576 45.4776 35.8773 45.4597 35.9946C45.4597 37.3953 45.4597 38.796 45.4597 40.1967C45.4597 42.8861 45.4485 45.5754 45.4485 48.2984V48.332ZM5.91517 50.8084H23.3175C23.2166 50.5843 23.1494 50.4274 23.0709 50.2705C20.8298 46.117 18.5887 41.9635 16.3476 37.8099C16.1839 37.5182 15.976 37.2536 15.7313 37.0255C15.531 36.85 15.2945 36.7206 15.0386 36.6467C14.7826 36.5728 14.5136 36.5561 14.2505 36.5978C13.9875 36.6395 13.7368 36.7386 13.5163 36.888C13.2958 37.0375 13.1109 37.2336 12.9747 37.4625C10.7336 41.6086 8.49245 45.7547 6.25133 49.9008C6.1729 50.1809 6.06084 50.4723 5.91517 50.8084ZM27.2058 52.691H1.89236C1.8866 52.7543 1.8866 52.8181 1.89236 52.8815C2.12613 54.0145 2.75708 55.0268 3.67141 55.7356C4.58574 56.4445 5.72327 56.8033 6.87885 56.7474H22.0961C22.5043 56.7435 22.9121 56.7173 23.3175 56.669C24.3215 56.5336 25.2527 56.0701 25.9661 55.3507C26.6795 54.6312 27.135 53.6961 27.2618 52.691H27.2058ZM26.2645 41.7207H26.5559H43.2074C43.5772 41.7207 43.6444 41.5638 43.6332 41.2388V37.0479C43.6426 36.9398 43.6426 36.8311 43.6332 36.723H26.3206L26.2645 41.7207ZM37.8175 14.7712C37.6382 14.2445 37.4701 13.7403 37.3133 13.236C37.0996 12.7547 37.0622 12.2136 37.2077 11.7074C37.3531 11.2013 37.6722 10.7626 38.1089 10.4683C38.2299 10.3885 38.3332 10.2847 38.4122 10.1632C38.4913 10.0417 38.5444 9.90524 38.5683 9.7623C38.5683 7.64444 38.5683 5.51537 38.5683 3.38631C38.5598 3.17283 38.5086 2.96323 38.4179 2.76981C38.3272 2.57639 38.1987 2.40304 38.04 2.26C37.8813 2.11697 37.6956 2.00713 37.4938 1.93691C37.292 1.8667 37.0783 1.83753 36.865 1.85115C36.6158 1.84343 36.3679 1.88909 36.1378 1.9851C35.9077 2.0811 35.7008 2.22522 35.531 2.40777C35.3612 2.59031 35.2324 2.80707 35.1532 3.04349C35.0741 3.27991 35.0464 3.53052 35.0721 3.77851C35.0721 6.86379 35.0721 9.94533 35.0721 13.0231C35.0721 14.6592 36.2263 15.4435 37.8175 14.7712ZM29.8391 8.56329C29.8391 9.89676 29.8391 11.2303 29.8391 12.5525C29.8215 12.7847 29.8533 13.0181 29.9324 13.2371C30.0116 13.4561 30.1363 13.6559 30.2983 13.8232C30.4603 13.9905 30.6559 14.1216 30.8723 14.2077C31.0887 14.2939 31.3209 14.3332 31.5536 14.323C31.7895 14.3356 32.0254 14.2989 32.2464 14.2154C32.4674 14.1319 32.6685 14.0033 32.8372 13.8379C33.0058 13.6724 33.1381 13.4737 33.2258 13.2543C33.3135 13.035 33.3546 12.7998 33.3465 12.5637C33.3465 9.85941 33.3465 7.16634 33.3465 4.48447C33.3584 4.12933 33.256 3.77975 33.0542 3.48722C32.8525 3.1947 32.5621 2.97469 32.2259 2.85964C31.97 2.74214 31.6889 2.69036 31.4079 2.70897C31.127 2.72758 30.8551 2.81601 30.617 2.96624C30.3789 3.11646 30.182 3.32375 30.0442 3.5693C29.9064 3.81484 29.8321 4.09087 29.8279 4.37241C29.8055 5.7619 29.8391 7.16259 29.8391 8.56329ZM28.0462 8.56329C28.0462 7.63323 28.0462 6.69198 28.0462 5.75071C28.0656 5.50863 28.0346 5.26515 27.9553 5.03562C27.8759 4.80609 27.7499 4.59547 27.5852 4.41703C27.4205 4.23859 27.2206 4.0962 26.9981 3.99881C26.7756 3.90141 26.5354 3.85111 26.2926 3.85111C26.0497 3.85111 25.8095 3.90141 25.587 3.99881C25.3645 4.0962 25.1646 4.23859 24.9999 4.41703C24.8352 4.59547 24.7092 4.80609 24.6298 5.03562C24.5505 5.26515 24.5195 5.50863 24.5389 5.75071C24.5389 7.57722 24.5389 9.40374 24.5389 11.219C24.5389 11.4501 24.5844 11.6788 24.6728 11.8923C24.7612 12.1057 24.8908 12.2997 25.0542 12.463C25.2175 12.6264 25.4115 12.756 25.6249 12.8444C25.8384 12.9328 26.0671 12.9783 26.2982 12.9783C26.5292 12.9783 26.758 12.9328 26.9714 12.8444C27.1848 12.756 27.3788 12.6264 27.5422 12.463C27.7055 12.2997 27.8351 12.1057 27.9235 11.8923C28.0119 11.6788 28.0574 11.4501 28.0574 11.219C28.035 10.3338 28.035 9.44856 28.035 8.55211L28.0462 8.56329ZM43.9022 10.2553C43.9022 8.21593 43.9022 6.25496 43.9022 4.28278C43.8661 3.86249 43.6754 3.47052 43.367 3.18277C43.0585 2.89502 42.6543 2.73197 42.2325 2.72518C41.8122 2.67446 41.3889 2.79213 41.0551 3.05248C40.7213 3.31283 40.504 3.69471 40.4508 4.1147C40.4508 6.04206 40.4508 7.98061 40.4508 9.90798C40.4709 9.98934 40.5128 10.0637 40.5721 10.1229C40.6313 10.1822 40.7056 10.2241 40.787 10.2441C41.7843 10.2553 42.804 10.2441 43.9022 10.2441V10.2553ZM57.5506 32.7562C57.5506 32.1618 57.3145 31.5918 56.8942 31.1715C56.4739 30.7512 55.9038 30.5151 55.3095 30.5151C54.7151 30.5151 54.145 30.7512 53.7247 31.1715C53.3045 31.5918 53.0683 32.1618 53.0683 32.7562C53.0683 33.3506 53.3045 33.9206 53.7247 34.3409C54.145 34.7612 54.7151 34.9973 55.3095 34.9973C55.6047 34.9973 55.8971 34.939 56.1697 34.8257C56.4423 34.7123 56.6899 34.5463 56.8981 34.337C57.1064 34.1277 57.2712 33.8793 57.3832 33.6061C57.4952 33.3329 57.5521 33.0402 57.5506 32.745V32.7562ZM12.392 32.7562C12.392 33.3506 12.6281 33.9206 13.0484 34.3409C13.4687 34.7612 14.0387 34.9973 14.6331 34.9973C15.2275 34.9973 15.7975 34.7612 16.2178 34.3409C16.6381 33.9206 16.8742 33.3506 16.8742 32.7562C16.8742 32.1618 16.6381 31.5918 16.2178 31.1715C15.7975 30.7512 15.2275 30.5151 14.6331 30.5151C14.3388 30.5091 14.0462 30.5612 13.772 30.6684C13.4978 30.7756 13.2474 30.9357 13.0352 31.1397C12.8229 31.3436 12.6529 31.5874 12.5348 31.8571C12.4168 32.1268 12.353 32.4171 12.3472 32.7114L12.392 32.7562ZM54.4242 8.60812H45.6502C45.6728 8.95139 45.6728 9.29579 45.6502 9.63905C45.6502 10.1097 45.7735 10.2441 46.2441 10.2441C48.799 10.2441 51.3427 10.2441 53.8976 10.2441H54.4354L54.4242 8.60812ZM22.7236 8.60812H15.5184V10.2217H22.7236V8.60812ZM9.08635 8.60812C7.27104 8.60812 5.52297 8.60812 3.7749 8.60812C3.66301 8.61155 3.55331 8.63995 3.45382 8.69125C3.35433 8.74256 3.26757 8.81548 3.19989 8.90464C3.13222 8.9938 3.08533 9.09698 3.06268 9.2066C3.04002 9.31622 3.04216 9.42952 3.06894 9.53821C3.06894 10.0425 3.43873 10.3002 4.08865 10.3002H9.08635V8.60812ZM60.8898 10.289H65.966C66.1889 10.2771 66.3979 10.1771 66.5471 10.0111C66.6963 9.8451 66.7735 9.6266 66.7616 9.40371C66.7497 9.18082 66.6497 8.97181 66.4837 8.82261C66.3177 8.6734 66.0992 8.59624 65.8763 8.60812H61.5846H60.8898V10.289ZM10.9353 10.289C11.7673 10.3453 12.6021 10.3453 13.4341 10.289C14.0056 10.2105 13.647 9.61662 13.7031 9.26925C13.7591 8.92188 13.8823 8.67538 13.4341 8.66417C12.6161 8.66417 11.7869 8.66417 10.9353 8.66417V10.289ZM56.2731 8.63056V10.2329H58.9961V8.63056H56.2731Z" fill="#486767"/>
</g>
</svg>
