<svg width="70" height="72" viewBox="0 0 70 72" fill="none" xmlns="http://www.w3.org/2000/svg">
<g id="Group 874">
<path id="Vector" d="M2.75421 68.7863V68.158C2.75421 60.0871 2.75421 52.0161 2.75421 43.9452C2.7521 43.5884 2.77837 43.232 2.83275 42.8793C2.85414 42.6897 2.94293 42.514 3.08296 42.3842C3.22299 42.2545 3.40495 42.1793 3.59571 42.1725C3.91913 42.1273 4.2453 42.1048 4.57185 42.1052H30.6022C32.2628 42.1052 32.4872 42.3408 32.4872 43.9901C32.4872 52.0012 32.4872 60.0123 32.4872 68.0234V68.7863H32.936C35.18 68.7863 37.3342 68.7863 39.5334 68.7863C39.9148 68.7863 40.0495 68.6741 40.0383 68.2814C40.0383 67.3838 40.0383 66.475 40.0383 65.5325H39.5109H35.4493C35.2161 65.5366 34.9831 65.5178 34.7536 65.4764C34.511 65.4359 34.2911 65.3092 34.1345 65.1196C33.9778 64.9299 33.8949 64.6901 33.9009 64.4442C33.8864 64.2015 33.9619 63.9619 34.1131 63.7714C34.2642 63.5809 34.4803 63.4529 34.72 63.4119C34.9326 63.3576 35.1513 63.3312 35.3707 63.3334H40.0046V57.8132H39.4548C38.0411 57.8132 36.6162 57.8132 35.2024 57.8132C34.9874 57.8258 34.7726 57.7853 34.577 57.6953C34.3813 57.6053 34.2108 57.4685 34.0804 57.297C33.974 57.1368 33.9134 56.9505 33.9052 56.7583C33.897 56.5661 33.9416 56.3753 34.034 56.2066C34.1264 56.0379 34.2633 55.8977 34.4297 55.8012C34.5961 55.7046 34.7857 55.6554 34.978 55.6589C35.8083 55.6589 36.6274 55.6589 37.4577 55.6589C38.2879 55.6589 38.9275 55.6589 39.7017 55.6589C39.8363 55.6589 40.0831 55.5018 40.0831 55.4121C40.0831 53.6842 40.0831 51.9563 40.0831 50.1387H35.3371C35.0578 50.1368 34.7808 50.0874 34.518 49.9928C34.3114 49.9156 34.1374 49.7699 34.0252 49.5801C33.9129 49.3902 33.869 49.1676 33.9009 48.9494C33.9112 48.7449 33.9847 48.5487 34.1113 48.3879C34.238 48.2271 34.4115 48.1096 34.6078 48.0517C34.8629 47.9782 35.1278 47.9442 35.3932 47.9508H39.309C39.9709 47.9508 40.0383 47.8835 40.0383 47.2327V42.4754H39.5109C38.0748 42.4754 36.6386 42.4754 35.2137 42.4754C34.9189 42.4717 34.6296 42.3946 34.3722 42.251C34.1753 42.1345 34.0245 41.9539 33.9448 41.7394C33.8652 41.525 33.8615 41.2897 33.9346 41.0729C33.9986 40.8529 34.1333 40.6601 34.3178 40.5242C34.5024 40.3883 34.7265 40.317 34.9556 40.3212C36.4254 40.3212 37.9065 40.3212 39.4436 40.3212C40.0944 40.3212 40.0944 40.3212 40.0944 39.6592V34.7897H37.4913C36.6947 34.7897 35.9093 34.7897 35.1127 34.7897C34.3161 34.7897 33.8897 34.3522 33.9009 33.6677C33.9091 33.5151 33.9484 33.3658 34.0164 33.229C34.0844 33.0921 34.1796 32.9706 34.2962 32.8718C34.4128 32.7731 34.5484 32.6992 34.6946 32.6547C34.8408 32.6102 34.9945 32.596 35.1463 32.6131H40.0158V27.1152H39.5109H35.3483C35.1617 27.1323 34.9739 27.1323 34.7873 27.1152C34.5321 27.0605 34.304 26.9185 34.1422 26.7137C33.9804 26.5089 33.8951 26.2541 33.9009 25.9932C33.9053 25.8606 33.9357 25.7301 33.9905 25.6093C34.0453 25.4884 34.1234 25.3796 34.2203 25.2889C34.3172 25.1982 34.4311 25.1276 34.5553 25.0809C34.6795 25.0343 34.8118 25.0126 34.9444 25.0171C36.4366 25.0171 37.9289 25.0171 39.4324 25.0171C40.0383 25.0171 40.0383 25.0171 40.0383 24.4224V19.0144H20.7735V19.4183C20.7735 23.3752 20.7735 27.3359 20.7735 31.3003C20.7793 31.6417 20.7339 31.9821 20.6389 32.3101C20.5832 32.524 20.4505 32.7099 20.2662 32.8321C20.0819 32.9542 19.8591 33.0041 19.6403 32.9721C19.413 32.9713 19.1925 32.8948 19.0137 32.7545C18.8348 32.6143 18.7079 32.4184 18.6529 32.1979C18.603 32.0038 18.5803 31.8036 18.5856 31.6032C18.5856 27.1152 18.5856 22.6272 18.5856 18.1392V17.9934C18.5856 16.7929 18.911 16.4674 20.1115 16.4562H33.8897V15.8728C33.8897 11.5082 33.8897 7.14366 33.8897 2.77908C33.8854 2.39849 33.9422 2.01967 34.058 1.65708C34.1056 1.51174 34.1859 1.37925 34.2927 1.26985C34.3996 1.16046 34.5302 1.07708 34.6743 1.02613C34.8185 0.975175 34.9725 0.958002 35.1244 0.975966C35.2762 0.99393 35.4219 1.04655 35.5503 1.12974L54.2203 11.0258C55.4882 11.699 56.7448 12.3946 58.0239 13.0341C58.4178 13.2022 58.7488 13.4897 58.9703 13.8562C59.1918 14.2226 59.2925 14.6494 59.2581 15.0762C59.2581 20.6862 59.2581 26.2288 59.2581 31.8164V32.4223H65.9901C66.9101 32.4784 67.2131 32.7814 67.2467 33.7014V68.8087C67.8414 68.8087 68.3688 68.8087 68.9185 68.8087C69.1637 68.7967 69.4048 68.8744 69.5968 69.0272C69.7888 69.18 69.9187 69.3975 69.962 69.639C70.0018 69.7818 70.0105 69.9315 69.9873 70.0779C69.9642 70.2243 69.9097 70.3639 69.8278 70.4874C69.7458 70.6109 69.6382 70.7153 69.5123 70.7935C69.3864 70.8717 69.2451 70.9219 69.0981 70.9406C68.7266 70.995 68.3515 71.0213 67.9761 71.0191H48.2962L2.11467 71.0303C1.73914 71.0355 1.36383 71.0092 0.992674 70.9518C0.734203 70.9356 0.490724 70.8248 0.308636 70.6407C0.126549 70.4565 0.0185833 70.2118 0.00531447 69.9532C-0.00870924 69.8201 0.00509504 69.6856 0.0458504 69.5582C0.0866058 69.4307 0.153421 69.3131 0.242053 69.2129C0.330685 69.1126 0.439195 69.032 0.560691 68.9759C0.682186 68.9199 0.814012 68.8897 0.947794 68.8873C1.49757 68.7863 2.09223 68.8424 2.75421 68.7863ZM36.1337 16.4562H38.7255C39.5895 16.4562 40.4646 16.4562 41.3286 16.5348C41.9457 16.5909 42.1476 16.8265 42.2149 17.4324C42.2149 17.8363 42.2149 18.2402 42.2149 18.6441V59.2717C42.2149 62.245 42.2149 65.2183 42.2149 68.2477C42.2149 68.7414 42.3608 68.8424 42.8208 68.8312C44.1448 68.8312 45.4687 68.8312 46.7927 68.8312H47.3313V34.498C47.3313 34.2736 47.3313 34.0604 47.3313 33.8472C47.3986 32.7813 47.6903 32.5009 48.745 32.4784H56.1277C56.958 32.4784 56.9692 32.4784 56.9692 31.6369C56.9692 26.4196 56.9692 21.2023 56.9692 15.985C56.9921 15.7144 56.9297 15.4435 56.7909 15.2101C56.6521 14.9767 56.4437 14.7925 56.1951 14.6835C50.0465 11.4446 43.9017 8.19083 37.7606 4.92207C37.2108 4.63035 36.6386 4.37229 36.0552 4.08057L36.1337 16.4562ZM64.9466 42.3632H57.7322C57.4861 42.3666 57.2408 42.3364 57.0029 42.2735C56.7667 42.2425 56.5516 42.1212 56.403 41.935C56.2545 41.7487 56.1839 41.5121 56.2063 41.2749C56.1927 41.0301 56.2717 40.7892 56.4276 40.6C56.5836 40.4109 56.8049 40.2873 57.0478 40.2539C57.3071 40.2084 57.5699 40.1859 57.8332 40.1866H64.9354V34.7224H49.6314V68.7863H64.9354V65.5437H62.0631C61.5052 65.5588 60.9469 65.5401 60.3913 65.4876C60.256 65.48 60.1238 65.444 60.0033 65.3818C59.8828 65.3197 59.7767 65.2329 59.6921 65.127C59.6074 65.0211 59.5459 64.8986 59.5118 64.7674C59.4776 64.6363 59.4715 64.4994 59.4937 64.3656C59.4937 63.7149 59.9762 63.3783 60.8177 63.3671H64.913V57.8468H57.5863C56.8458 57.8468 56.3634 57.5663 56.2399 57.0726C56.0492 56.276 56.5092 55.7038 57.4293 55.6926C59.5386 55.6926 61.6592 55.6926 63.7798 55.6926C64.9803 55.6926 64.9803 55.6926 64.9803 54.5032V50.1611C64.6774 50.1611 64.4193 50.1611 64.1612 50.1611H58.0912C57.7145 50.1747 57.3375 50.1408 56.9692 50.0601C56.8487 50.0411 56.7333 49.9983 56.6295 49.9342C56.5257 49.8702 56.4357 49.7861 56.3647 49.6869C56.2937 49.5877 56.2431 49.4754 56.2159 49.3565C56.1887 49.2375 56.1854 49.1144 56.2063 48.9942C56.1963 48.764 56.2742 48.5386 56.4242 48.3636C56.5742 48.1886 56.7851 48.0771 57.0141 48.0517C57.2724 47.9979 57.5357 47.9716 57.7995 47.9732H64.9354L64.9466 42.3632ZM5.02065 68.7863H30.2656V44.4277H5.02065V68.7863Z" fill="#486767"/>
<path id="Vector_2" d="M19.6628 38.4923C19.3652 38.4923 19.0798 38.3741 18.8694 38.1637C18.659 37.9533 18.5408 37.6679 18.5408 37.3703C18.5408 37.0728 18.659 36.7874 18.8694 36.577C19.0798 36.3666 19.3652 36.2483 19.6628 36.2483C19.9603 36.2483 20.2457 36.3666 20.4561 36.577C20.6666 36.7874 20.7848 37.0728 20.7848 37.3703C20.7848 37.6679 20.6666 37.9533 20.4561 38.1637C20.2457 38.3741 19.9603 38.4923 19.6628 38.4923Z" fill="#486767"/>
<path id="Vector_3" d="M53.7042 27.2724C53.7042 27.7212 53.7042 28.1812 53.7042 28.63C53.7042 28.9276 53.586 29.213 53.3756 29.4234C53.1651 29.6338 52.8798 29.752 52.5822 29.752C52.4378 29.7523 52.2949 29.723 52.1624 29.6658C52.0298 29.6087 51.9104 29.5249 51.8116 29.4197C51.7127 29.3145 51.6365 29.1902 51.5876 29.0543C51.5387 28.9185 51.5183 28.7741 51.5275 28.63C51.5275 27.7324 51.5275 26.8236 51.5275 25.926C51.5131 25.7818 51.5296 25.6361 51.5759 25.4988C51.6221 25.3614 51.6971 25.2355 51.7958 25.1293C51.8945 25.0232 52.0147 24.9393 52.1484 24.8832C52.282 24.8271 52.4261 24.8001 52.571 24.804C52.7209 24.7941 52.8712 24.8163 53.0118 24.8692C53.1524 24.9221 53.2801 25.0044 53.3864 25.1106C53.4926 25.2169 53.5749 25.3446 53.6278 25.4852C53.6807 25.6258 53.7029 25.7761 53.693 25.926C53.693 26.386 53.693 26.8573 53.693 27.3173L53.7042 27.2724Z" fill="#486767"/>
<path id="Vector_4" d="M48.2176 27.2724C48.2176 27.7324 48.2176 28.1812 48.2176 28.63C48.2176 28.9275 48.0994 29.2129 47.889 29.4234C47.6786 29.6338 47.3932 29.752 47.0956 29.752C46.7998 29.729 46.5251 29.5898 46.3316 29.3648C46.1382 29.1399 46.0417 28.8474 46.0634 28.5515C46.0634 27.6539 46.0634 26.7563 46.0634 25.8474C46.0474 25.7048 46.0621 25.5603 46.1063 25.4237C46.1506 25.2872 46.2234 25.1616 46.3201 25.0554C46.4167 24.9493 46.5349 24.8649 46.6667 24.808C46.7985 24.7511 46.9409 24.7229 47.0844 24.7254C47.2283 24.7129 47.3732 24.7306 47.5097 24.7775C47.6463 24.8244 47.7715 24.8995 47.8773 24.9979C47.983 25.0962 48.0669 25.2156 48.1236 25.3484C48.1803 25.4813 48.2085 25.6245 48.2064 25.7689C48.2064 26.2401 48.2064 26.7338 48.2064 27.205L48.2176 27.2724Z" fill="#486767"/>
<path id="Vector_5" d="M53.6935 19.0032C53.6935 19.4408 53.6935 19.8783 53.6935 20.3047C53.694 20.591 53.5851 20.8666 53.3891 21.0752C53.193 21.2838 52.9246 21.4095 52.6388 21.4267C52.3544 21.4274 52.0803 21.32 51.872 21.1263C51.6637 20.9326 51.5368 20.667 51.5168 20.3832C51.5168 19.4856 51.5168 18.5768 51.5168 17.6792C51.5165 17.5422 51.5444 17.4066 51.5988 17.2809C51.6531 17.1551 51.7327 17.0419 51.8327 16.9482C51.9327 16.8545 52.0509 16.7824 52.1799 16.7364C52.3089 16.6904 52.4461 16.6714 52.5827 16.6806C52.7232 16.6667 52.865 16.682 52.9993 16.7256C53.1335 16.7692 53.2572 16.8401 53.3627 16.9339C53.4681 17.0278 53.5529 17.1425 53.6118 17.2707C53.6707 17.399 53.7023 17.5381 53.7047 17.6792C53.7047 18.128 53.7047 18.5768 53.7047 19.0256L53.6935 19.0032Z" fill="#486767"/>
<path id="Vector_6" d="M48.2174 19.0032C48.2174 19.4072 48.2174 19.8111 48.2174 20.215C48.2265 20.3679 48.2043 20.5211 48.1521 20.6651C48.0998 20.8091 48.0186 20.9408 47.9135 21.0522C47.8084 21.1637 47.6816 21.2524 47.5409 21.3129C47.4002 21.3735 47.2485 21.4046 47.0954 21.4043C46.7996 21.3841 46.5238 21.2477 46.3283 21.0249C46.1328 20.802 46.0334 20.5109 46.0519 20.215C46.0519 19.3959 46.0519 18.5657 46.0519 17.7466C46.0376 17.6033 46.0538 17.4587 46.0994 17.3221C46.145 17.1855 46.219 17.0602 46.3165 16.9542C46.414 16.8482 46.5328 16.7641 46.6651 16.7073C46.7974 16.6505 46.9402 16.6223 47.0841 16.6246C47.2276 16.6138 47.3718 16.6327 47.5076 16.6803C47.6434 16.7278 47.7679 16.803 47.8733 16.901C47.9787 16.999 48.0626 17.1177 48.1199 17.2497C48.1772 17.3817 48.2065 17.5242 48.2061 17.6681C48.2061 18.1056 48.2061 18.5432 48.2061 18.9696L48.2174 19.0032Z" fill="#486767"/>
<path id="Vector_7" d="M54.2873 65.4989C53.9897 65.4989 53.7043 65.3807 53.4939 65.1702C53.2835 64.9598 53.1653 64.6745 53.1653 64.3769C53.1825 64.0911 53.3082 63.8227 53.5168 63.6267C53.7254 63.4306 54.001 63.3217 54.2873 63.3222C54.5849 63.3222 54.8702 63.4404 55.0807 63.6508C55.2911 63.8612 55.4093 64.1466 55.4093 64.4442C55.3921 64.73 55.2664 64.9983 55.0578 65.1944C54.8492 65.3905 54.5736 65.4994 54.2873 65.4989Z" fill="#486767"/>
<path id="Vector_8" d="M19.6961 51.2384C19.6961 50.4418 19.6961 49.6451 19.6961 48.8597C19.6961 48.0743 20.044 47.6704 20.8181 47.6592C22.4675 47.6592 24.1168 47.6592 25.7661 47.6592C26.5852 47.6592 26.8881 48.0407 26.8881 48.871C26.8881 50.5203 26.8881 52.1697 26.8881 53.819C26.904 53.9702 26.8859 54.1231 26.8351 54.2665C26.7844 54.4098 26.7022 54.54 26.5947 54.6475C26.4871 54.755 26.357 54.8372 26.2136 54.888C26.0703 54.9388 25.9174 54.9569 25.7661 54.941H20.8406C20.6864 54.9414 20.5338 54.9099 20.3923 54.8487C20.2507 54.7875 20.1234 54.6977 20.0181 54.5851C19.9128 54.4724 19.8319 54.3393 19.7803 54.194C19.7288 54.0486 19.7078 53.8943 19.7186 53.7404C19.6849 52.8877 19.6961 52.0574 19.6961 51.2384ZM21.9401 52.6409H24.6554V49.892H21.9289L21.9401 52.6409Z" fill="#486767"/>
<path id="Vector_9" d="M19.6968 61.8411C19.6968 61.0445 19.6968 60.2478 19.6968 59.4624C19.6968 58.677 20.0783 58.2844 20.8188 58.2844C22.4644 58.2844 24.1138 58.2844 25.7669 58.2844C25.9185 58.2663 26.0723 58.2829 26.2167 58.3329C26.361 58.3829 26.4921 58.465 26.6002 58.573C26.7082 58.6811 26.7903 58.8122 26.8403 58.9565C26.8903 59.1008 26.9069 59.2547 26.8889 59.4064C26.8889 61.0968 26.8889 62.7911 26.8889 64.489C26.9053 64.6325 26.8889 64.7778 26.8409 64.914C26.793 65.0502 26.7148 65.1737 26.6121 65.2753C26.5095 65.3768 26.3851 65.4538 26.2484 65.5003C26.1117 65.5468 25.9662 65.5616 25.823 65.5437C24.0951 65.5437 22.3672 65.5437 20.6505 65.5437C19.9998 65.5437 19.6744 65.1061 19.6632 64.4217C19.652 63.7372 19.6968 62.6826 19.6968 61.8411ZM21.9408 60.5395V63.2772H24.6561V60.5395H21.9408Z" fill="#486767"/>
<path id="Vector_10" d="M8.45405 61.886C8.45405 61.1006 8.45405 60.304 8.45405 59.5074C8.45405 58.7107 8.83553 58.2844 9.65459 58.2732H14.5577C15.3543 58.2732 15.6797 58.6434 15.6797 59.3952C15.6797 61.0333 15.6797 62.6602 15.6797 64.2983C15.6797 65.0949 15.3768 65.4203 14.5577 65.4203C12.8747 65.4203 11.1917 65.4203 9.51995 65.4203C8.74577 65.4203 8.39795 65.0164 8.39795 64.2422C8.39795 63.468 8.39795 62.6265 8.39795 61.8075L8.45405 61.886ZM13.4357 63.2885V60.5284H10.7541V63.2885H13.4357Z" fill="#486767"/>
<path id="Vector_11" d="M15.6792 51.2832C15.6792 52.091 15.6792 52.8989 15.6792 53.7067C15.6913 53.8694 15.6678 54.0328 15.6103 54.1855C15.5528 54.3382 15.4627 54.4765 15.3463 54.5908C15.2298 54.7051 15.0899 54.7926 14.9362 54.8473C14.7824 54.9019 14.6186 54.9224 14.4562 54.9072H9.69891C9.53058 54.9271 9.35995 54.9085 9.19983 54.8529C9.03972 54.7973 8.89427 54.7062 8.77443 54.5863C8.65458 54.4665 8.56344 54.321 8.50786 54.1609C8.45227 54.0008 8.43368 53.8301 8.45349 53.6618C8.45349 52.0686 8.45349 50.4641 8.45349 48.8597C8.45349 48.0855 8.76765 47.7377 9.57549 47.6703C11.2809 47.6703 12.9976 47.6703 14.703 47.6703C15.4323 47.6703 15.7016 48.0743 15.7128 48.7923C15.724 49.5104 15.7128 50.4417 15.7128 51.2607L15.6792 51.2832ZM13.4352 52.6408V49.8919H10.7536V52.6408H13.4352Z" fill="#486767"/>
</g>
</svg>
