<svg width="70" height="72" viewBox="0 0 70 72" fill="none" xmlns="http://www.w3.org/2000/svg">
<g id="Group 877">
<path id="Vector" d="M70 41.7296C69.4851 43.4533 68.6301 45.0563 67.4856 46.4441C67.3587 46.6053 67.199 46.7377 67.0171 46.8325C66.8352 46.9273 66.6353 46.9824 66.4305 46.9941C66.2441 46.9372 66.0723 46.8404 65.9269 46.7106C65.7816 46.5807 65.6661 46.4209 65.5886 46.2421C65.5334 45.9171 65.6058 45.5833 65.7906 45.3104C66.2172 44.5808 66.6999 43.8848 67.1713 43.1889C67.6962 42.4103 67.9704 41.4899 67.9571 40.551V14.8458C67.9571 13.8243 67.6091 13.4988 66.5876 13.5549C65.4641 13.6508 64.4178 14.1658 63.6567 14.9977C62.8955 15.8296 62.4752 16.9174 62.4793 18.0449C62.4793 24.286 62.4793 30.5271 62.4793 36.7682C62.5029 37.5948 62.3612 38.4177 62.0624 39.1888C61.7637 39.9598 61.3138 40.6634 60.7394 41.2582C57.3719 44.9175 54.0044 48.6218 50.5583 52.3148C50.3787 52.5168 50.1879 52.7301 49.9971 52.9097C49.8016 53.1037 49.5373 53.2126 49.2618 53.2126C48.9864 53.2126 48.7221 53.1037 48.5266 52.9097C48.3408 52.719 48.2368 52.4632 48.2368 52.1969C48.2368 51.9306 48.3408 51.6749 48.5266 51.4841C49.3573 50.5525 50.2104 49.632 51.0522 48.7116C53.8473 45.6696 56.6647 42.6389 59.4373 39.6081C59.7841 39.2781 60.0497 38.8723 60.2133 38.4224C60.3769 37.9725 60.434 37.4908 60.3802 37.0151C60.317 36.504 60.1187 36.019 59.8057 35.61C59.4926 35.2011 59.0762 34.883 58.5993 34.6886C58.1224 34.4942 57.6023 34.4304 57.0925 34.504C56.5828 34.5775 56.1019 34.7856 55.6994 35.1069C55.4176 35.3359 55.1514 35.5834 54.9024 35.8477L43.9917 46.6798C43.8504 46.8306 43.7005 46.973 43.5427 47.1064C43.4474 47.2052 43.3332 47.2838 43.2069 47.3374C43.0806 47.3911 42.9447 47.4188 42.8075 47.4188C42.6702 47.4188 42.5344 47.3911 42.4081 47.3374C42.2817 47.2838 42.1675 47.2052 42.0722 47.1064C41.9705 47.0128 41.8893 46.8992 41.8338 46.7726C41.7783 46.6461 41.7496 46.5094 41.7496 46.3712C41.7496 46.233 41.7783 46.0963 41.8338 45.9697C41.8893 45.8431 41.9705 45.7295 42.0722 45.6359C42.7121 44.9624 43.3856 44.3226 44.0478 43.6603L44.4744 43.2113C43.0825 42.3919 42.9141 41.0898 42.9366 39.653C42.9366 36.2182 42.9366 32.7721 42.9366 29.326C42.8808 28.265 43.1453 27.2117 43.6958 26.3029C44.2463 25.3942 45.0572 24.6719 46.0234 24.2299C46.4949 23.9942 46.3939 23.6462 46.349 23.3207C46.2381 22.3961 45.8426 21.5289 45.2172 20.8391C44.5917 20.1493 43.7673 19.671 42.858 19.4705C41.612 19.2011 40.3548 18.9878 39.0976 18.7858C38.9835 18.7841 38.8702 18.8051 38.7642 18.8475C38.6583 18.8899 38.5618 18.9528 38.4803 19.0327C38.0738 19.5656 37.5499 19.9974 36.9493 20.2947C36.3486 20.592 35.6875 20.7466 35.0173 20.7466C34.3472 20.7466 33.6861 20.592 33.0854 20.2947C32.4848 19.9974 31.9609 19.5656 31.5544 19.0327C31.4603 18.9492 31.3498 18.8861 31.23 18.8474C31.1102 18.8088 30.9837 18.7954 30.8585 18.8082C29.736 18.9878 28.5349 19.2123 27.3787 19.4368C26.4422 19.6088 25.5828 20.0691 24.9207 20.7533C24.2586 21.4376 23.8268 22.3116 23.6857 23.2533C23.6053 23.4692 23.6132 23.7082 23.7077 23.9183C23.8023 24.1284 23.9759 24.2928 24.1908 24.3758C25.0626 24.8003 25.7945 25.4658 26.2998 26.2934C26.8051 27.1209 27.0626 28.076 27.042 29.0454C27.042 32.8956 27.042 36.757 27.042 40.6071C27.0465 41.1368 26.9146 41.6587 26.659 42.1226C26.4035 42.5866 26.0328 42.977 25.5827 43.2562C27.0083 44.7155 28.4227 46.1298 29.8258 47.5778L33.9454 51.8658V42.3358C33.9454 42.1562 33.9454 41.9766 33.9454 41.797C33.9445 41.5142 34.0503 41.2415 34.2418 41.0334C34.4332 40.8253 34.6962 40.6971 34.9781 40.6745C35.5842 40.6745 35.9995 41.1235 36.0444 41.797C36.0444 41.9766 36.0444 42.1562 36.0444 42.3358V51.9331C36.8975 50.979 37.6608 50.0922 38.4578 49.2391C39.0415 48.6218 39.6589 48.5769 40.1191 49.0708C40.5793 49.5647 40.5232 50.1147 39.917 50.6759C37.8642 52.5542 36.5338 55.0919 36.1567 57.8487C35.8266 60.0706 36.1504 62.3406 37.0884 64.3816C37.8362 65.9416 38.3036 67.6211 38.469 69.3431C38.5339 69.6423 38.5112 69.9538 38.4037 70.2404C38.2962 70.5271 38.1085 70.7767 37.8629 70.9595H37.0435C36.8227 70.7853 36.6464 70.5612 36.5293 70.3055C36.4122 70.0498 36.3576 69.77 36.37 69.489C36.3774 69.0993 36.3321 68.7104 36.2353 68.3328C35.8985 67.2103 35.5281 66.0878 35.1128 64.9653L34.8883 65.0215C34.128 66.4043 33.6797 67.9369 33.5749 69.5115C33.5855 69.7922 33.53 70.0714 33.4131 70.3268C33.2961 70.5822 33.1209 70.8066 32.9014 70.9819H32.082C31.1054 70.3197 31.431 69.3319 31.5993 68.49C31.8431 67.2194 32.2193 65.9779 32.7218 64.7857C33.8375 62.4826 34.1877 59.8832 33.7212 57.3669C33.2547 54.8507 31.996 52.5495 30.1289 50.7994L14.7955 35.5559C14.4067 35.1029 13.8887 34.7795 13.3109 34.629C12.7331 34.4786 12.1232 34.5082 11.5627 34.714C11.1105 34.8738 10.7055 35.1443 10.3846 35.5008C10.0637 35.8572 9.83714 36.2883 9.72555 36.7548C9.61396 37.2212 9.62089 37.7082 9.74573 38.1713C9.87056 38.6344 10.1093 39.0589 10.4402 39.4061C12.1464 41.3929 13.9424 43.2675 15.716 45.1982L21.2162 51.1923C21.33 51.3039 21.4351 51.4239 21.5305 51.5515C21.7088 51.7461 21.8077 52.0004 21.8077 52.2643C21.8077 52.5282 21.7088 52.7825 21.5305 52.9771C21.4345 53.0745 21.32 53.1518 21.1938 53.2046C21.0676 53.2574 20.9321 53.2846 20.7953 53.2846C20.6585 53.2846 20.523 53.2574 20.3968 53.2046C20.2706 53.1518 20.1561 53.0745 20.0601 52.9771C19.2519 52.1352 18.4661 51.2821 17.6804 50.4178C14.8292 47.3197 11.9893 44.1991 9.12692 41.1123C8.11332 40.0487 7.55717 38.6301 7.57788 37.1611C7.57788 30.8526 7.57788 24.533 7.57788 18.2245C7.59906 17.1741 7.25122 16.1495 6.59489 15.3291C5.93857 14.5087 5.01533 13.9444 3.98588 13.7345C3.76363 13.6918 3.53851 13.6655 3.31238 13.656C2.45929 13.656 2.10009 13.959 2.10009 14.7785C2.10009 16.7316 2.10009 18.696 2.10009 20.6491C2.10009 21.4573 1.74089 21.9288 1.11229 21.9512C0.483689 21.9737 0.00101514 21.4236 0.00101514 20.593C0.00101514 18.5613 0.00101514 16.5408 0.00101514 14.5091C-0.00990593 14.0911 0.0673956 13.6756 0.227878 13.2895C0.38836 12.9035 0.628419 12.5556 0.932397 12.2686C1.23638 11.9815 1.59745 11.7618 1.99206 11.6237C2.38667 11.4856 2.80596 11.4322 3.22258 11.4671C4.89613 11.5069 6.49029 12.1887 7.67504 13.3713C8.85979 14.554 9.5444 16.147 9.58715 17.8204C9.66572 19.5715 9.58715 21.3226 9.58715 23.0849V23.9044L12.8761 23.2982C12.9644 23.2864 13.0469 23.2471 13.1118 23.186C13.2576 22.8665 13.3265 22.5173 13.3129 22.1664C13.2992 21.8155 13.2034 21.4726 13.0332 21.1655C11.9558 20.0312 11.3154 18.5516 11.226 16.9898C11.046 15.9088 11.1268 14.8004 11.4617 13.757C11.8854 12.5823 12.7104 11.595 13.791 10.9694C14.8717 10.3437 16.1387 10.1198 17.3684 10.3373C18.598 10.5548 19.7113 11.1996 20.5119 12.158C21.3124 13.1164 21.7487 14.3267 21.7438 15.5754C21.8232 16.6346 21.6749 17.6985 21.309 18.6956C20.9431 19.6927 20.3679 20.5999 19.6223 21.3563C19.5666 21.4332 19.5269 21.5206 19.5057 21.6131C19.4845 21.7057 19.4822 21.8016 19.4988 21.8951C19.4988 22.3216 19.6447 22.737 19.7345 23.2084L21.5081 23.5452C21.6203 23.0176 21.6877 22.5125 21.8336 22.0522C22.2095 20.7761 22.9548 19.6399 23.9756 18.7869C24.9964 17.9339 26.247 17.4023 27.5696 17.2592C28.5798 17.0908 29.5901 16.9112 30.5891 16.6979C30.6913 16.66 30.7831 16.5985 30.8572 16.5186C30.9313 16.4387 30.9855 16.3425 31.0156 16.2377C31.1461 15.8597 31.1647 15.4521 31.0691 15.0638C30.9735 14.6755 30.7679 14.3231 30.4768 14.0488C28.288 11.8712 27.6818 6.30359 29.5564 3.83409C30.2324 2.83799 31.1718 2.04921 32.2698 1.5557C33.3678 1.06218 34.5813 0.883327 35.775 1.03907C36.9629 1.15304 38.0948 1.59868 39.0416 2.32512C39.9883 3.05155 40.7118 4.02953 41.1293 5.14742C41.2046 5.28054 41.2519 5.42765 41.2683 5.57971C41.2847 5.73177 41.2698 5.88557 41.2246 6.03168C41.1794 6.17779 41.1048 6.31312 41.0055 6.42936C40.9061 6.54561 40.784 6.64032 40.6467 6.70769C40.063 6.95464 39.5242 6.70769 39.2211 5.94439C39.0589 5.37539 38.7863 4.8439 38.4188 4.38027C38.0512 3.91664 37.5959 3.52994 37.0789 3.24226C36.5619 2.95457 35.9933 2.77153 35.4056 2.70359C34.8179 2.63566 34.2225 2.68414 33.6535 2.84629C33.0845 3.00844 32.553 3.28108 32.0894 3.64863C31.6258 4.01618 31.2391 4.47145 30.9514 4.98845C30.3704 6.03258 30.2279 7.26474 30.5554 8.41389C30.6296 9.16811 30.7457 9.9176 30.9034 10.6589C31.116 11.4192 31.4842 12.127 31.9847 12.7376C32.4851 13.3482 33.1069 13.8482 33.8107 14.206C34.1775 14.4178 34.5937 14.5293 35.0173 14.5293C35.441 14.5293 35.8572 14.4178 36.224 14.206C37.6083 13.4737 38.6458 12.2223 39.1089 10.7262C39.1089 10.5915 39.1874 10.4568 39.2323 10.3334C39.2606 10.199 39.3165 10.072 39.3966 9.96044C39.4767 9.84891 39.5792 9.7553 39.6975 9.68559C39.8158 9.61587 39.9473 9.57159 40.0837 9.55557C40.2201 9.53954 40.3583 9.55212 40.4895 9.59251C40.6274 9.62786 40.7563 9.69163 40.868 9.77971C40.9798 9.86779 41.0719 9.97826 41.1385 10.104C41.2051 10.2298 41.2446 10.3681 41.2547 10.51C41.2647 10.6519 41.2449 10.7944 41.1967 10.9283C40.8502 12.2576 40.1613 13.4729 39.1986 14.4529C39.0377 14.7724 38.9438 15.1214 38.9226 15.4785C38.9013 15.8356 38.9533 16.1932 39.0752 16.5295C39.1936 16.6245 39.3389 16.6795 39.4905 16.6867L42.9815 17.349C44.4075 17.5894 45.7134 18.2963 46.6946 19.3587C47.6758 20.4211 48.2767 21.779 48.4031 23.2196C48.4222 23.3199 48.4523 23.4178 48.4929 23.5115L50.2777 23.1972C50.3213 22.8376 50.3888 22.4814 50.4798 22.1308C50.5437 21.9423 50.5478 21.7387 50.4915 21.5478C50.4353 21.3569 50.3214 21.1881 50.1655 21.0644C49.24 20.0771 48.6112 18.8491 48.3512 17.521C48.0911 16.1929 48.2103 14.8184 48.695 13.5549C49.1535 12.361 50.0387 11.3798 51.1793 10.8012C52.3199 10.2226 53.6345 10.0879 54.8687 10.4232C56.1098 10.7552 57.1922 11.518 57.9223 12.5751C58.6524 13.6322 58.9825 14.9146 58.8536 16.1928C58.8213 18.0987 58.0718 19.9224 56.7545 21.3002C56.2831 21.7604 56.7545 23.1635 57.4392 23.287L60.3914 23.837C60.3914 22.7145 60.3914 21.6594 60.3914 20.6267C60.3456 19.2391 60.4131 17.85 60.5935 16.4734C60.9157 15.0258 61.7267 13.7334 62.8899 12.8135C64.0531 11.8935 65.4976 11.4022 66.9805 11.4222C67.5668 11.4078 68.1438 11.5704 68.6364 11.8887C69.129 12.2071 69.5142 12.6665 69.7418 13.207C69.8092 13.3641 69.9102 13.51 69.9888 13.656L70 41.7296ZM60.3577 33.3333C60.3577 33.0303 60.3577 32.8282 60.3577 32.6262C60.3577 30.6955 60.3577 28.7536 60.3577 26.8229C60.379 26.7071 60.3747 26.588 60.3452 26.4741C60.3156 26.3601 60.2615 26.254 60.1867 26.1631C60.1119 26.0722 60.0181 25.9988 59.9119 25.9479C59.8057 25.8971 59.6897 25.8701 59.572 25.8687C58.7975 25.7228 58.0005 25.6218 57.2372 25.4197C57.0168 25.3446 56.7784 25.3399 56.5551 25.4062C56.3319 25.4726 56.1348 25.6068 55.9912 25.7902C55.4305 26.4117 54.6539 26.796 53.8196 26.8649C52.9854 26.9337 52.1562 26.6818 51.5012 26.1606C51.1595 25.82 50.7269 25.5849 50.2552 25.4834C49.7835 25.3818 49.2925 25.4182 48.8409 25.5881C48.6164 25.6405 48.3919 25.6854 48.1674 25.7228C47.7044 25.7428 47.2505 25.8581 46.8341 26.0615C46.4177 26.2649 46.0478 26.5521 45.7475 26.9051C45.4472 27.2581 45.223 27.6692 45.089 28.1129C44.9549 28.5565 44.9138 29.023 44.9683 29.4832C44.9683 33.0415 44.9683 36.5886 44.9683 40.1357C44.9258 40.3843 44.9491 40.6397 45.0356 40.8765C45.1864 41.1582 45.4395 41.3711 45.7428 41.4715C45.9017 41.4583 46.0559 41.4114 46.1953 41.334C46.3346 41.2566 46.4559 41.1504 46.551 41.0225C46.6746 40.7843 46.7217 40.5138 46.6857 40.2479V31.6384C46.6857 30.7853 47.0674 30.325 47.7296 30.3363C48.3919 30.3475 48.7287 30.7965 48.7287 31.6159C48.7287 33.7936 48.7287 35.9824 48.7287 38.1713C48.7287 38.3846 48.7287 38.5979 48.7287 38.9122C48.9644 38.6877 49.1328 38.553 49.2899 38.3958C50.7866 36.8992 52.2832 35.4249 53.7799 33.9732C54.6132 33.1241 55.7183 32.5949 56.9022 32.4779C58.0861 32.361 59.2734 32.6638 60.2567 33.3333H60.3577ZM20.9468 38.9458L21.205 38.7662C21.205 36.3753 21.205 33.9844 21.205 31.6047C21.205 30.7628 21.5867 30.3026 22.2602 30.3138C22.9337 30.325 23.248 30.7853 23.248 31.6047V39.3163C23.248 39.7765 23.248 40.2367 23.248 40.6857C23.2477 40.7953 23.27 40.9037 23.3135 41.0042C23.357 41.1048 23.4208 41.1953 23.5009 41.2701C23.5809 41.3449 23.6755 41.4023 23.7788 41.4389C23.8821 41.4755 23.9918 41.4904 24.101 41.4827C24.2102 41.4923 24.3201 41.4786 24.4236 41.4425C24.5271 41.4065 24.6217 41.3489 24.7013 41.2736C24.7809 41.1983 24.8435 41.1069 24.8852 41.0056C24.9268 40.9042 24.9465 40.7952 24.9429 40.6857C24.9429 40.4724 24.9429 40.2704 24.9429 40.0683C24.9429 37.6999 24.9429 35.3314 24.9429 32.9629C24.9429 31.5261 24.9429 30.0893 24.9429 28.6638C24.8974 27.9859 24.6279 27.3425 24.1768 26.8345C23.7257 26.3266 23.1186 25.9829 22.451 25.8575C21.5642 25.6667 20.6662 25.4983 19.7682 25.3636C19.6539 25.3607 19.5402 25.3811 19.4341 25.4235C19.328 25.466 19.2316 25.5296 19.1508 25.6106C18.8128 25.9912 18.3979 26.2958 17.9335 26.5045C17.4692 26.7131 16.9659 26.821 16.4568 26.821C15.9478 26.821 15.4445 26.7131 14.9801 26.5045C14.5158 26.2958 14.1009 25.9912 13.7628 25.6106C13.6281 25.4646 13.3812 25.2963 13.2128 25.3299C12.2026 25.4871 11.2035 25.6891 10.2045 25.8912C9.75552 25.981 9.59837 26.2392 9.6096 26.7106C9.6096 28.7199 9.6096 30.7179 9.6096 32.7272C9.5982 32.8617 9.5982 32.9968 9.6096 33.1313C10.448 32.8416 11.3074 32.6164 12.1801 32.4578C12.8979 32.3889 13.6218 32.4868 14.2955 32.7439C14.9692 33.0009 15.5744 33.4101 16.064 33.9395C17.7178 35.6158 19.3454 37.292 20.9468 38.9683V38.9458ZM13.2353 15.8673L13.0444 15.9234C13.2475 16.9684 13.5832 17.9831 14.0435 18.9429C15.5476 21.2553 17.3324 21.3002 18.859 18.9429C19.2943 18.0776 19.5574 17.136 19.6335 16.1703C19.7593 15.5623 19.6967 14.9303 19.454 14.3587C19.2113 13.7871 18.8001 13.3031 18.2753 12.9712C17.7937 12.6128 17.2166 12.4055 16.6171 12.3755C16.0176 12.3456 15.4227 12.4943 14.9078 12.8029C14.3513 13.0839 13.8933 13.5275 13.5946 14.0748C13.2959 14.622 13.1706 15.2472 13.2353 15.8673ZM56.7657 16.1479C56.8352 15.7054 56.8125 15.2533 56.6993 14.82C56.586 14.3866 56.3845 13.9813 56.1074 13.6294C55.8303 13.2775 55.4835 12.9866 55.0889 12.7748C54.6942 12.5631 54.26 12.435 53.8136 12.3988C52.9893 12.323 52.1681 12.5732 51.526 13.0956C50.884 13.6181 50.4721 14.3713 50.3787 15.1938C50.3366 16.0106 50.4007 16.8293 50.5696 17.6296C50.6655 18.1455 50.8628 18.6373 51.1498 19.0765C51.4369 19.5158 51.8081 19.8939 52.2421 20.1889C52.596 20.522 53.0638 20.7074 53.5498 20.7074C54.0358 20.7074 54.5035 20.522 54.8575 20.1889C55.4843 19.725 55.9865 19.1133 56.3195 18.4082C56.6524 17.7031 56.8057 16.9266 56.7657 16.1479ZM36.8414 16.2152C36.2591 16.4622 35.633 16.5895 35.0005 16.5895C34.368 16.5895 33.7419 16.4622 33.1596 16.2152C32.9463 17.0347 32.8565 17.7755 33.7096 18.2919C34.0846 18.5331 34.521 18.6614 34.9668 18.6614C35.4127 18.6614 35.8491 18.5331 36.224 18.2919C37.0435 17.8204 37.122 17.0908 36.8414 16.2152ZM17.5008 22.7482H15.3568C15.3568 23.3543 14.818 23.9829 15.5925 24.4881C15.8606 24.6609 16.1749 24.7481 16.4936 24.7381C16.8124 24.7281 17.1206 24.6213 17.3773 24.4319C18.0283 23.9156 17.5569 23.3207 17.5008 22.7482ZM54.6442 22.7482H52.489C52.489 23.3207 51.9727 23.9268 52.6574 24.4319C52.9186 24.616 53.2303 24.7148 53.5498 24.7148C53.8693 24.7148 54.181 24.616 54.4422 24.4319C55.1942 23.9605 54.6442 23.3431 54.6442 22.7594V22.7482Z" fill="#486767"/>
<path id="Vector_2" d="M16.9618 70.9929C16.6829 70.6287 16.4702 70.2184 16.3332 69.7806C16.0636 67.7706 15.3338 65.8499 14.2005 64.1681C9.87887 57.6239 5.61337 51.091 1.24686 44.558C0.41279 43.3312 -0.0223347 41.8769 0.000883059 40.3936C0.000883059 35.5556 0.000883059 30.7289 0.000883059 25.8909C0.000883059 25.2847 0.146808 24.7684 0.797857 24.6449C1.44891 24.5214 2.04383 24.9817 2.04383 25.846V37.1944C2.04383 38.2384 2.04383 39.2935 2.04383 40.3374C2.02388 41.4385 2.34973 42.5181 2.9755 43.4243C7.26345 49.8899 11.5402 56.363 15.8057 62.8435C17.1668 64.8165 18.0471 67.0808 18.3762 69.455C18.4396 69.7398 18.417 70.037 18.311 70.3089C18.2051 70.5807 18.0207 70.8149 17.7813 70.9816L16.9618 70.9929Z" fill="#486767"/>
<path id="Vector_3" d="M52.2311 70.9933C51.9929 70.8228 51.8098 70.5864 51.7041 70.3132C51.5984 70.04 51.5748 69.7419 51.6361 69.4555C51.9488 67.2207 52.7581 65.0843 54.0046 63.2032L62.8723 49.7332L63.0632 49.4526C63.2199 49.2422 63.4509 49.0993 63.7092 49.053C63.9675 49.0067 64.2337 49.0605 64.4537 49.2034C64.6738 49.3463 64.8312 49.5676 64.894 49.8224C64.9568 50.0772 64.9203 50.3463 64.7918 50.5751C64.6571 50.8108 64.5 51.0353 64.3428 51.2598C61.4992 55.5702 58.6555 59.8806 55.8118 64.191C54.6752 65.8711 53.9451 67.7925 53.6791 69.8035C53.5421 70.2413 53.3294 70.6516 53.0505 71.0158L52.2311 70.9933Z" fill="#486767"/>
<path id="Vector_4" d="M28.9946 25.2736C29.0175 24.6401 29.204 24.0233 29.536 23.4833C29.868 22.9433 30.3342 22.4985 30.8891 22.1922C31.4441 21.8859 32.069 21.7285 32.7028 21.7354C33.3367 21.7423 33.9579 21.9133 34.5061 22.2316C34.651 22.3272 34.8208 22.3782 34.9944 22.3782C35.168 22.3782 35.3378 22.3272 35.4827 22.2316C36.2553 21.8223 37.1476 21.6986 38.0024 21.8823C38.8573 22.066 39.6199 22.5452 40.1563 23.2358C40.6926 23.9263 40.9682 24.7839 40.9347 25.6576C40.9011 26.5313 40.5604 27.3651 39.9727 28.0125C38.6032 29.4381 37.1889 30.83 35.7745 32.2218C35.6758 32.3479 35.5497 32.4498 35.4058 32.5198C35.2619 32.5899 35.104 32.6263 34.9439 32.6263C34.7838 32.6263 34.6258 32.5899 34.4819 32.5198C34.338 32.4498 34.2119 32.3479 34.1132 32.2218C32.7326 30.8524 31.3631 29.4942 30.0049 28.1135C29.6427 27.7403 29.365 27.2935 29.1907 26.8035C29.0163 26.3135 28.9495 25.7917 28.9946 25.2736ZM35 30.0891C36.1899 28.9105 37.3573 27.8441 38.4798 26.6318C38.6399 26.4836 38.7677 26.3039 38.8551 26.104C38.9425 25.9041 38.9876 25.6882 38.9876 25.47C38.9876 25.2518 38.9425 25.036 38.8551 24.836C38.7677 24.6361 38.6399 24.4564 38.4798 24.3082C38.3273 24.1535 38.1455 24.0306 37.9451 23.9467C37.7447 23.8628 37.5296 23.8196 37.3124 23.8196C37.0951 23.8196 36.88 23.8628 36.6796 23.9467C36.4792 24.0306 36.2974 24.1535 36.145 24.3082C35.0225 25.2511 35.0225 25.2511 33.9 24.3082C33.7475 24.1535 33.5657 24.0306 33.3653 23.9467C33.1649 23.8628 32.9498 23.8196 32.7326 23.8196C32.5153 23.8196 32.3002 23.8628 32.0998 23.9467C31.8994 24.0306 31.7177 24.1535 31.5652 24.3082C31.405 24.4564 31.2772 24.6361 31.1898 24.836C31.1024 25.036 31.0573 25.2518 31.0573 25.47C31.0573 25.6882 31.1024 25.9041 31.1898 26.104C31.2772 26.3039 31.405 26.4836 31.5652 26.6318C32.654 27.7992 33.8102 28.9105 35 30.0891Z" fill="#486767"/>
</g>
</svg>
