<svg width="70" height="70" viewBox="0 0 70 70" fill="none" xmlns="http://www.w3.org/2000/svg">
<g id="Group 875">
<path id="Vector" d="M26.4637 35.4864L28.954 37.943C29.728 38.717 29.7392 39.1321 28.954 39.8837C28.7287 40.0611 28.4885 40.2187 28.2361 40.3548L31.6013 43.2489C36.5371 47.4742 41.4728 51.6995 46.4085 55.9247C47.2512 56.592 47.8584 57.5113 48.1412 58.5483C48.424 59.5853 48.3677 60.6856 47.9804 61.6883C47.5931 62.691 46.8952 63.5435 45.9887 64.1212C45.0822 64.6988 44.0147 64.9713 42.9423 64.8988C42.2379 64.8636 41.5493 64.6783 40.9224 64.3552C40.2956 64.0321 39.7451 63.5787 39.3078 63.0254L31.1526 53.513C28.7409 50.7086 26.3291 47.9042 23.7491 44.8643C23.58 45.1677 23.3808 45.4533 23.1545 45.7168C22.5376 46.345 22.1001 46.3337 21.4719 45.7168L18.847 43.0694L15.8744 46.0421C15.8744 46.0421 15.9417 46.1431 16.0202 46.2328C16.2 46.4213 16.3403 46.6438 16.4327 46.8873C16.5252 47.1308 16.568 47.3903 16.5586 47.6506C16.5491 47.9109 16.4877 48.1667 16.3779 48.4029C16.2681 48.6391 16.1122 48.851 15.9192 49.026C15.1677 49.8224 14.3824 50.5964 13.586 51.3592C13.4019 51.5845 13.17 51.766 12.9071 51.8907C12.6442 52.0153 12.3569 52.08 12.066 52.08C11.7751 52.08 11.4878 52.0153 11.2249 51.8907C10.962 51.766 10.7301 51.5845 10.546 51.3592L0.741901 41.5551C0.510426 41.3701 0.323547 41.1355 0.195117 40.8685C0.0666868 40.6015 0 40.309 0 40.0127C0 39.7164 0.0666868 39.4239 0.195117 39.1569C0.323547 38.8899 0.510426 38.6552 0.741901 38.4703L2.78349 36.4287C2.96015 36.1751 3.19177 35.9647 3.46108 35.8132C3.7304 35.6616 4.03045 35.5728 4.33887 35.5534C4.64728 35.534 4.9561 35.5845 5.24229 35.7011C5.52848 35.8176 5.78465 35.9973 5.99171 36.2267L19.5986 22.676C19.3644 22.3222 19.1653 21.9466 19.004 21.5542C18.8998 21.2264 18.892 20.8756 18.9815 20.5435C19.071 20.2113 19.254 19.9119 19.5088 19.6809C20.3053 18.8508 21.1017 18.0319 21.943 17.2355C22.1272 17.0275 22.3535 16.861 22.6068 16.747C22.8601 16.633 23.1347 16.574 23.4125 16.574C23.6903 16.574 23.965 16.633 24.2183 16.747C24.4716 16.861 24.6978 17.0275 24.882 17.2355L34.7759 27.163C34.9914 27.3473 35.1644 27.5761 35.2831 27.8336C35.4017 28.0912 35.4631 28.3714 35.4631 28.6549C35.4631 28.9385 35.4017 29.2187 35.2831 29.4762C35.1644 29.7337 34.9914 29.9625 34.7759 30.1468C34.0804 30.876 33.3513 31.5827 32.6334 32.2894C32.4554 32.5347 32.2244 32.7368 31.9576 32.8807C31.6909 33.0246 31.3951 33.1066 31.0924 33.1206C30.7896 33.1346 30.4876 33.0803 30.2086 32.9616C29.9297 32.843 29.6811 32.6631 29.4812 32.4352L26.4637 35.4864ZM21.1578 24.2689L7.69677 37.7299L14.4273 44.4604L27.8883 30.9994L21.1578 24.2689ZM25.3195 43.6303C25.499 43.8435 25.6224 44.0117 25.757 44.18L35.2246 55.2405C37.0979 57.4279 38.9713 59.6265 40.8334 61.8139C41.2084 62.2997 41.7245 62.6576 42.311 62.8384C42.8974 63.0191 43.5255 63.0139 44.1089 62.8235C44.7137 62.6781 45.2568 62.3445 45.6599 61.8708C46.0631 61.3971 46.3055 60.8077 46.3524 60.1874C46.406 59.5859 46.2969 58.9812 46.0364 58.4365C45.7758 57.8917 45.3736 57.4271 44.8717 57.0914C39.9734 52.9035 35.075 48.7081 30.1767 44.5053L27.1255 41.914L25.3195 43.6303ZM2.07679 39.9734L12.1726 49.9795L14.5843 47.5677L4.48856 37.6177L2.07679 39.9734ZM33.3737 28.61L23.3789 18.7498L21.0008 21.0943L31.0965 31.0555L33.3737 28.61ZM20.3165 41.6224L22.2683 43.5854L27.047 38.9189L25.0727 36.8662L20.3165 41.6224Z" fill="#3B5D3E"/>
<path id="Vector_2" d="M68.0249 16.5738H67.1948C64.8503 16.5738 62.5058 16.5738 60.1502 16.5738C59.3559 16.6155 58.5617 16.4902 57.8189 16.2059C57.0761 15.9217 56.4012 15.4847 55.8378 14.9234C55.2743 14.3621 54.8349 13.6888 54.5478 12.9471C54.2608 12.2054 54.1325 11.4117 54.1712 10.6173C54.1712 8.29525 54.1712 5.97323 54.1712 3.6512V2.765H53.3972C43.3014 2.765 33.2056 2.765 23.1996 2.765C22.6626 2.73824 22.1258 2.82336 21.6234 3.01496C21.121 3.20655 20.6639 3.50045 20.281 3.87803C19.8982 4.2556 19.598 4.70859 19.3994 5.20829C19.2009 5.708 19.1083 6.24352 19.1276 6.78088C19.1837 9.70866 19.1276 12.6476 19.1276 15.5754C19.1276 15.8559 19.1837 16.2148 19.0491 16.3943C18.9145 16.5738 18.4546 17.0674 18.1405 17.0674C17.8264 17.0674 17.4899 16.6747 17.2431 16.3831C16.9963 16.0914 17.187 15.9344 17.187 15.6988C17.187 12.7374 17.2431 9.78717 17.187 6.82574C17.1587 6.01874 17.297 5.21459 17.5932 4.4634C17.8895 3.71221 18.3373 3.0301 18.9088 2.45964C19.4804 1.88918 20.1633 1.4426 20.915 1.14774C21.6667 0.85288 22.4712 0.716067 23.2781 0.745842C33.7441 0.835582 44.21 0.745842 54.6872 0.745842C54.9761 0.734712 55.2639 0.786081 55.5311 0.896434C55.7982 1.00679 56.0384 1.17353 56.2352 1.38525C60.6026 5.78252 64.9812 10.1648 69.371 14.5322C69.5711 14.7244 69.7285 14.9565 69.8329 15.2136C69.9372 15.4707 69.9862 15.7469 69.9767 16.0241C69.9767 31.7287 69.9767 47.4332 69.9767 63.1378C70.0513 63.952 69.947 64.7727 69.671 65.5423C69.3951 66.312 68.9542 67.012 68.3793 67.5934C67.8043 68.1747 67.1092 68.6233 66.3427 68.9078C65.5761 69.1922 64.7567 69.3056 63.9417 69.2401H31.007C30.8882 69.2431 30.77 69.2224 30.6593 69.1794C30.5485 69.1363 30.4474 69.0717 30.3619 68.9893C30.2763 68.9068 30.208 68.8082 30.1608 68.6992C30.1136 68.5901 30.0886 68.4728 30.0872 68.3539C30.0582 68.1166 30.1228 67.8772 30.2673 67.6866C30.4117 67.4961 30.6248 67.3693 30.8612 67.3331C31.1184 67.3049 31.378 67.3049 31.6352 67.3331C42.3591 67.3331 53.0831 67.3331 63.8071 67.3331C64.3723 67.3692 64.9387 67.2846 65.4688 67.085C65.9988 66.8854 66.4803 66.5753 66.8813 66.1753C67.2824 65.7753 67.5937 65.2947 67.7947 64.7652C67.9958 64.2357 68.0819 63.6694 68.0473 63.1041C68.0473 47.8819 68.0473 32.6485 68.0473 17.4263L68.0249 16.5738ZM66.1852 14.6332L56.0894 4.53737C56.0894 6.64627 56.0333 8.90099 56.0894 11.1445C56.0915 12.0199 56.4205 12.8629 57.0119 13.5083C57.6033 14.1537 58.4145 14.5548 59.2864 14.6332C61.6982 14.7005 64.0539 14.6332 66.1852 14.6332Z" fill="#3B5D3E"/>
<path id="Vector_3" d="M2.87349 59.38C2.87349 58.0676 2.87349 56.8673 2.87349 55.6782C2.85436 55.3127 2.91189 54.9472 3.04237 54.6053C3.17285 54.2633 3.37341 53.9524 3.63116 53.6925C3.88891 53.4327 4.19816 53.2296 4.53904 53.0963C4.87993 52.9631 5.24491 52.9026 5.61057 52.9187H22.3023C22.6733 52.9028 23.0436 52.9642 23.3897 53.0989C23.7357 53.2337 24.05 53.4389 24.3126 53.7015C24.5752 53.9641 24.7804 54.2784 24.9152 54.6245C25.0499 54.9705 25.1113 55.3408 25.0954 55.7119C25.0954 56.9009 25.0954 58.09 25.0954 59.38H26.5986C26.7401 59.3657 26.883 59.3833 27.0168 59.4314C27.1506 59.4795 27.272 59.557 27.372 59.6581C27.472 59.7592 27.5482 59.8813 27.5949 60.0157C27.6415 60.15 27.6576 60.2931 27.6418 60.4344C27.6418 61.8478 27.6418 63.25 27.6418 64.6635C27.6578 64.8118 27.6392 64.9618 27.5874 65.1018C27.5357 65.2417 27.4521 65.3677 27.3434 65.4699C27.2347 65.5721 27.1038 65.6477 26.9609 65.6907C26.818 65.7338 26.6671 65.7431 26.5201 65.7179H1.41521C0.652418 65.7179 0.293457 65.415 0.293457 64.6746C0.293457 63.2612 0.293457 61.8591 0.293457 60.4457C0.293457 59.6941 0.641201 59.4024 1.41521 59.38H2.87349ZM4.82534 59.38H23.166V56.0147C23.166 55.0949 22.9753 54.893 22.0443 54.893H5.74518C5.27404 54.893 4.84778 55.0052 4.83656 55.5436C4.80291 56.7775 4.82534 58.0339 4.82534 59.3351V59.38ZM25.6675 61.4104H2.24531V63.7773H25.6675V61.4104Z" fill="#3B5D3E"/>
<path id="Vector_4" d="M35.4713 14.3302H22.874C21.8307 14.3302 21.5503 14.061 21.5503 12.9953C21.5503 10.8415 21.5503 8.67656 21.5503 6.5228C21.5503 5.49078 21.8532 5.18791 22.8964 5.18791H48.0798C49.2015 5.18791 49.4595 5.50201 49.4595 6.57889V12.9056C49.4595 14.0273 49.1679 14.3302 48.0573 14.3302H35.4713ZM23.5582 12.3896H47.4628V7.25193H23.5582V12.3896Z" fill="#3B5D3E"/>
<path id="Vector_5" d="M55.3037 38.6724C57.6745 38.7554 59.9204 39.7556 61.5681 41.4621C63.2159 43.1686 64.1369 45.4481 64.1369 47.8203C64.1369 50.1925 63.2159 52.472 61.5681 54.1785C59.9204 55.885 57.6745 56.8851 55.3037 56.9682C54.0755 57.0112 52.8511 56.8064 51.7037 56.3661C50.5562 55.9257 49.5093 55.2588 48.6251 54.4051C47.741 53.5514 47.0378 52.5284 46.5576 51.3971C46.0773 50.2658 45.8298 49.0493 45.8298 47.8203C45.8298 46.5913 46.0773 45.3748 46.5576 44.2435C47.0378 43.1122 47.741 42.0892 48.6251 41.2355C49.5093 40.3818 50.5562 39.7149 51.7037 39.2745C52.8511 38.8342 54.0755 38.6294 55.3037 38.6724ZM55.3037 40.6243C53.878 40.6265 52.4849 41.0519 51.3011 41.8466C50.1174 42.6413 49.1961 43.7694 48.6541 45.0882C48.1121 46.4069 47.9737 47.8569 48.2565 49.2543C48.5393 50.6518 49.2306 51.9338 50.2427 52.9381C51.2548 53.9423 52.5422 54.6235 53.9418 54.8954C55.3414 55.1673 56.7902 55.0176 58.1047 54.4653C59.4192 53.913 60.5401 52.983 61.3255 51.793C62.111 50.6031 62.5255 49.2068 62.5166 47.781C62.5152 46.8321 62.3254 45.8929 61.9582 45.0179C61.5911 44.1429 61.0538 43.3495 60.3776 42.6837C59.7014 42.018 58.8997 41.4931 58.0191 41.1396C57.1385 40.786 56.1965 40.6109 55.2476 40.6243H55.3037Z" fill="#3B5D3E"/>
<path id="Vector_6" d="M50.7385 20.3653H62.8198C63.0778 20.3653 63.3919 20.2867 63.5826 20.3653C63.7733 20.4438 64.3005 20.8588 64.323 21.1393C64.3018 21.3337 64.2424 21.5221 64.148 21.6935C64.0537 21.8648 63.9263 22.0158 63.7733 22.1376C63.5938 22.3059 63.2012 22.261 62.8983 22.261H38.4329C38.1997 22.2707 37.9661 22.2518 37.7374 22.2049C37.5111 22.1768 37.3047 22.0614 37.1622 21.8833C37.0197 21.7051 36.9524 21.4784 36.9746 21.2514C36.9716 21.1327 36.9923 21.0145 37.0353 20.9037C37.0784 20.793 37.143 20.6919 37.2255 20.6063C37.3079 20.5207 37.4065 20.4524 37.5156 20.4053C37.6247 20.3581 37.742 20.3331 37.8608 20.3316C38.0964 20.3316 38.3319 20.3316 38.5675 20.3316L50.7385 20.3653Z" fill="#3B5D3E"/>
<path id="Vector_7" d="M50.6821 26.7144H38.1409C37.4006 26.7144 36.9406 26.3106 36.9519 25.7161C36.9631 25.1216 37.423 24.785 38.0736 24.7738H62.9092C63.118 24.7513 63.3286 24.7513 63.5374 24.7738C63.7744 24.7938 63.9948 24.9037 64.1533 25.081C64.3119 25.2583 64.3965 25.4896 64.39 25.7273C64.3993 25.8516 64.3827 25.9765 64.3411 26.0941C64.2995 26.2116 64.2338 26.3192 64.1483 26.41C64.0629 26.5008 63.9594 26.5727 63.8446 26.6213C63.7297 26.6698 63.606 26.6939 63.4813 26.692C62.999 26.692 62.5054 26.692 62.0118 26.692L50.6821 26.7144Z" fill="#3B5D3E"/>
<path id="Vector_8" d="M43.75 35.5762H38.1413C37.6253 35.5762 37.1541 35.3967 37.0195 34.8695C36.9955 34.5162 37.099 34.1659 37.3112 33.8823C37.4137 33.7933 37.533 33.7256 37.6621 33.6832C37.7911 33.6408 37.9273 33.6246 38.0627 33.6356H49.3588C50.0655 33.6356 50.4805 34.0057 50.4805 34.5778C50.4805 35.1499 50.0206 35.5762 49.2803 35.5762H43.75Z" fill="#3B5D3E"/>
<path id="Vector_9" d="M43.7498 31.1118H38.2195C37.4231 31.1118 36.9856 30.7864 36.9632 30.1919C36.9407 29.5974 37.4119 29.1823 38.2195 29.1823C41.9213 29.1823 45.6343 29.1823 49.3361 29.1823C50.0989 29.1823 50.5588 29.5749 50.5588 30.1583C50.5588 30.7416 50.0989 31.1118 49.3361 31.1118H43.7498Z" fill="#3B5D3E"/>
</g>
</svg>
