<svg width="70" height="72" viewBox="0 0 70 72" fill="none" xmlns="http://www.w3.org/2000/svg">
<g id="Group 876">
<path id="Vector" d="M43.2828 0.896881C44.3273 1.37206 45.2484 2.08119 45.9748 2.96938C46.0845 3.06044 46.1737 3.17358 46.2367 3.30145C46.2996 3.42932 46.3349 3.56903 46.3402 3.71146C46.3455 3.85389 46.3208 3.99583 46.2675 4.12804C46.2142 4.26024 46.1337 4.37973 46.0312 4.4787C45.9404 4.59151 45.8255 4.68254 45.6949 4.74508C45.5643 4.80762 45.4213 4.84007 45.2765 4.84007C45.1317 4.84007 44.9887 4.80762 44.8581 4.74508C44.7275 4.68254 44.6126 4.59151 44.5218 4.4787C44.1727 4.15206 43.846 3.79163 43.4968 3.46498C43.371 3.32142 43.216 3.20638 43.0422 3.12757C42.8683 3.04876 42.6796 3.00798 42.4887 3.00798C42.2979 3.00798 42.1092 3.04876 41.9353 3.12757C41.7615 3.20638 41.6065 3.32142 41.4807 3.46498C41.3421 3.59262 41.2315 3.7476 41.1558 3.92014C41.0802 4.09269 41.0411 4.27904 41.0411 4.46744C41.0411 4.65584 41.0802 4.8422 41.1558 5.01474C41.2315 5.18729 41.3421 5.34227 41.4807 5.4699L41.7285 5.71771L53.0597 17.0489C53.2478 17.3086 53.5178 17.4975 53.8262 17.5854C54.1347 17.6732 54.4637 17.6548 54.7605 17.5332C54.9942 17.4505 55.2016 17.3071 55.3616 17.1177C55.5216 16.9284 55.6282 16.6998 55.6707 16.4556C55.7131 16.2113 55.6897 15.9602 55.603 15.728C55.5163 15.4957 55.3693 15.2907 55.1772 15.1341C53.0709 13.0053 50.9421 10.8877 48.8245 8.77014C48.6781 8.62371 48.5317 8.48855 48.3965 8.33085C48.2805 8.24485 48.1849 8.13427 48.1166 8.00702C48.0484 7.87977 48.009 7.73899 48.0015 7.59477C47.994 7.45055 48.0184 7.30646 48.0731 7.17278C48.1277 7.03911 48.2112 6.91916 48.3177 6.82154C48.4187 6.7117 48.5425 6.62526 48.6805 6.56825C48.8184 6.51124 48.9671 6.48504 49.1162 6.49148C49.2653 6.49791 49.4112 6.53683 49.5437 6.60551C49.6762 6.6742 49.7921 6.77098 49.8833 6.88911C52.1924 9.14184 54.5239 11.4959 56.8104 13.8275C57.3819 14.3516 57.7385 15.0691 57.8114 15.8411C57.8842 16.613 57.668 17.3846 57.2047 18.0063C56.7686 18.6854 56.1197 19.2008 55.3595 19.4719C54.5993 19.743 53.7707 19.7544 53.0033 19.5044C52.5237 19.268 52.0642 18.993 51.6292 18.6821L49.5567 20.7546C50.0278 21.2267 50.3946 21.7925 50.6332 22.4154C50.8719 23.0382 50.9771 23.7042 50.9421 24.3702C50.918 24.9593 50.7883 25.5392 50.5591 26.0823C50.4473 26.2658 50.4106 26.4854 50.4568 26.6953C50.5029 26.9051 50.6284 27.0891 50.8069 27.2087C55.1922 31.5715 59.5588 35.9342 63.9065 40.297C65.1793 41.5698 66.4521 42.8651 67.7474 44.1154C68.7443 44.9717 69.5175 46.058 70.0001 47.2804V48.7897C69.91 49.0263 69.8199 49.2516 69.7411 49.4881C69.5124 50.2282 69.0935 50.8954 68.5263 51.423C67.959 51.9505 67.2632 52.32 66.5085 52.4944C65.7537 52.6689 64.9664 52.6422 64.2252 52.417C63.4839 52.1919 62.8148 51.7762 62.2845 51.2114C56.45 45.2868 50.5253 39.441 44.657 33.5388C44.5097 33.3359 44.2939 33.1933 44.0495 33.1374C43.8051 33.0815 43.5487 33.116 43.3279 33.2347C42.5674 33.5571 41.7349 33.6717 40.9156 33.5669C40.0963 33.462 39.3195 33.1413 38.6648 32.6377C38.462 32.4913 38.2705 32.3336 38.1128 32.1985L36.0178 34.2935C37.5046 36.3097 37.4032 38.1119 35.6912 39.5649C35.3842 39.8503 35.0239 40.0722 34.6308 40.2178C34.2377 40.3633 33.8197 40.4296 33.4009 40.4129C32.9821 40.3961 32.5707 40.2966 32.1905 40.1202C31.8103 39.9437 31.4688 39.6937 31.1857 39.3846C28.2234 36.4674 25.2948 33.5163 22.355 30.5765L19.5955 27.8057C17.9735 26.1837 17.8496 24.359 19.2576 22.8497C19.5696 22.4864 19.9537 22.1919 20.3855 21.9848C20.8173 21.7777 21.2874 21.6626 21.766 21.6467C22.2446 21.6308 22.7213 21.7145 23.1659 21.8925C23.6105 22.0705 24.0133 22.3389 24.3487 22.6807L39.9939 7.03555C39.9939 7.10313 39.9939 7.03554 39.9939 6.97923C37.865 4.83914 39.4419 1.70787 41.6947 1.0771C41.779 1.04719 41.8586 1.00548 41.9312 0.953203L43.2828 0.896881ZM50.041 17.1278L41.6609 8.75888L26.1058 24.2463L34.486 32.6377C39.6447 27.4677 44.8485 22.264 49.9847 17.1278H50.041ZM45.7834 31.624C45.8428 31.7027 45.9068 31.7779 45.9748 31.8493L63.8051 49.7134C63.9483 49.8603 64.1027 49.9959 64.2669 50.1189C64.578 50.3616 64.9473 50.5185 65.338 50.5737C65.7287 50.6289 66.127 50.5805 66.4931 50.4333C66.8592 50.2862 67.1802 50.0455 67.4241 49.7353C67.6679 49.4251 67.826 49.0564 67.8826 48.6659C67.9625 48.2372 67.9264 47.7949 67.7778 47.385C67.6293 46.975 67.3738 46.6122 67.0378 46.3343L49.3539 28.673C49.23 28.5491 49.0949 28.4364 48.9935 28.3463L45.7834 31.624ZM35.1055 36.6363C34.939 36.3025 34.735 35.9888 34.4972 35.7014C30.6751 31.8568 26.8492 28.0272 23.0196 24.2126C22.9295 24.1337 22.8506 24.0436 22.7605 23.976C22.6193 23.854 22.4554 23.761 22.2782 23.7023C22.101 23.6436 21.9139 23.6204 21.7277 23.634C21.5416 23.6476 21.3599 23.6977 21.1931 23.7815C21.0263 23.8654 20.8776 23.9812 20.7556 24.1224C20.6336 24.2637 20.5406 24.4276 20.4819 24.6048C20.4232 24.782 20.4 24.9691 20.4136 25.1552C20.4272 25.3414 20.4773 25.5231 20.5611 25.6899C20.6449 25.8567 20.7608 26.0053 20.902 26.1274C24.7992 30.0471 28.7077 33.9556 32.6275 37.8528C32.7397 37.966 32.8689 38.061 33.0104 38.1344C33.2451 38.2399 33.5036 38.2813 33.7595 38.2542C34.0154 38.2271 34.2595 38.1325 34.4668 37.9801C34.6742 37.8278 34.8374 37.6231 34.9397 37.387C35.042 37.1508 35.0798 36.8918 35.0491 36.6363H35.1055ZM48.1149 22.309L39.7461 30.6779C40.1959 31.179 40.8245 31.4834 41.4965 31.5255C42.1686 31.5677 42.8303 31.3442 43.3392 30.9031C45.0625 29.3037 46.7182 27.6254 48.3289 25.9134C48.757 25.3935 48.9678 24.7284 48.9174 24.0569C48.8671 23.3854 48.5594 22.7592 48.0586 22.309H48.1149Z" fill="white"/>
<path id="Vector_2" d="M4.05132 63.6016C3.96188 62.7554 3.96188 61.9022 4.05132 61.056C4.21297 60.2174 4.66538 59.4627 5.32885 58.9249C5.99232 58.3871 6.82429 58.1008 7.6782 58.1162H33.2917C33.9158 58.0892 34.5368 58.2181 35.0987 58.4912C35.6605 58.7643 36.1456 59.173 36.5099 59.6804C36.8743 60.1879 37.1066 60.7781 37.1858 61.3978C37.265 62.0174 37.1886 62.6471 36.9636 63.2299C36.9319 63.3213 36.9092 63.4156 36.896 63.5115C37.4176 63.5362 37.937 63.5964 38.4504 63.6917C39.3399 63.9144 40.1175 64.4543 40.637 65.2099C41.1564 65.9655 41.382 66.8849 41.2713 67.7952C41.1607 68.7054 40.7214 69.5439 40.036 70.1531C39.3506 70.7622 38.4663 71.1001 37.5493 71.1031H3.56698C2.60336 71.0504 1.69655 70.6305 1.03304 69.9297C0.369531 69.2289 -0.000244141 68.3005 -0.000244141 67.3355C-0.000244141 66.3704 0.369531 65.442 1.03304 64.7412C1.69655 64.0404 2.60336 63.6205 3.56698 63.5678L4.05132 63.6016ZM20.5075 69.0869H37.0312C38.4617 69.0869 39.2839 68.4562 39.2839 67.3636C39.2839 66.271 38.4504 65.6515 37.0312 65.6515H16.0358C15.7869 65.7028 15.5301 65.7028 15.2811 65.6515C14.9546 65.537 14.674 65.3196 14.4814 65.0321C14.1097 64.2661 14.6504 63.6241 15.6078 63.6241H33.179C33.4248 63.6587 33.6751 63.6401 33.9131 63.5696C34.1511 63.4991 34.3712 63.3784 34.5585 63.2156C34.7458 63.0527 34.896 62.8516 34.9989 62.6257C35.1019 62.3999 35.1551 62.1546 35.1551 61.9064C35.1551 61.6582 35.1019 61.4129 34.9989 61.187C34.896 60.9612 34.7458 60.7601 34.5585 60.5972C34.3712 60.4344 34.1511 60.3137 33.9131 60.2432C33.6751 60.1727 33.4248 60.1541 33.179 60.1887H14.763C12.5103 60.1887 10.1449 60.1887 7.83589 60.1887C7.59604 60.1699 7.35492 60.2013 7.12783 60.2807C6.90075 60.3602 6.69267 60.486 6.51683 60.6502C6.34099 60.8144 6.20122 61.0133 6.10642 61.2345C6.01161 61.4556 5.96384 61.694 5.96613 61.9346C5.97608 62.1694 6.03305 62.3999 6.13366 62.6123C6.23427 62.8247 6.37648 63.0148 6.55188 63.1713C6.72727 63.3278 6.93228 63.4475 7.15477 63.5234C7.37726 63.5992 7.6127 63.6296 7.84716 63.6128C8.51171 63.6128 9.18753 63.6128 9.84082 63.6128C10.1893 63.6537 10.5104 63.8222 10.7419 64.0859C10.8459 64.2424 10.9039 64.425 10.9091 64.6128C10.9144 64.8007 10.8667 64.9862 10.7716 65.1483C10.6765 65.3103 10.5377 65.4424 10.3711 65.5294C10.2046 65.6164 10.0169 65.6548 9.82955 65.6403C7.79084 65.6403 5.75213 65.6403 3.72468 65.6403C3.42407 65.6133 3.1217 65.6669 2.84861 65.7954C2.57553 65.9239 2.34156 66.1228 2.17071 66.3716C1.99987 66.6204 1.89832 66.9102 1.87647 67.2112C1.85462 67.5122 1.91327 67.8136 2.0464 68.0845C2.216 68.4245 2.48693 68.7036 2.82182 68.8831C3.15672 69.0627 3.53908 69.1339 3.91616 69.0869H20.5075Z" fill="white"/>
<path id="Vector_3" d="M14.7178 52.8335C14.7178 53.7796 13.8167 54.3541 13.1634 53.9599C11.1247 52.6307 9.10848 51.2566 7.10355 49.8712C6.98892 49.8022 6.89086 49.7089 6.81629 49.5979C6.74173 49.4868 6.69249 49.3608 6.67207 49.2286C6.65165 49.0964 6.66055 48.9613 6.69813 48.8329C6.73571 48.7046 6.80106 48.586 6.88954 48.4857C6.95135 48.3682 7.03776 48.2654 7.14289 48.1843C7.24803 48.1033 7.3694 48.0458 7.49875 48.0159C7.6281 47.9859 7.76238 47.9842 7.89245 48.0109C8.02251 48.0376 8.1453 48.0919 8.25244 48.1704C10.2686 49.5107 12.2623 50.8624 14.2559 52.2365C14.4442 52.4064 14.6006 52.6086 14.7178 52.8335Z" fill="white"/>
<path id="Vector_4" d="M34.9135 49.0374C34.713 49.3611 34.4748 49.6598 34.2038 49.9273C32.289 51.2564 30.3517 52.5517 28.4144 53.847C28.3007 53.9316 28.1709 53.9921 28.033 54.0246C27.8951 54.0571 27.752 54.061 27.6125 54.036C27.473 54.011 27.3402 53.9577 27.2221 53.8793C27.1041 53.8009 27.0034 53.6992 26.9262 53.5803C26.849 53.4615 26.797 53.3281 26.7735 53.1884C26.7499 53.0486 26.7552 52.9056 26.7891 52.768C26.8231 52.6304 26.8848 52.5012 26.9706 52.3885C27.0564 52.2757 27.1644 52.1818 27.288 52.1124C29.1915 50.8171 31.0838 49.5105 33.0212 48.2602C33.1896 48.1614 33.377 48.0992 33.5711 48.0779C33.7652 48.0565 33.9617 48.0764 34.1475 48.1363C34.4404 48.249 34.6206 48.677 34.9135 49.0374Z" fill="white"/>
<path id="Vector_5" d="M21.735 45.208C21.735 46.3343 21.735 47.3931 21.735 48.4857C21.735 48.7575 21.627 49.0182 21.4348 49.2105C21.2426 49.4027 20.9819 49.5107 20.71 49.5107C20.4382 49.5107 20.1775 49.4027 19.9852 49.2105C19.793 49.0182 19.685 48.7575 19.685 48.4857V41.8289C19.6689 41.6847 19.6838 41.5387 19.7289 41.4008C19.774 41.2629 19.8482 41.1363 19.9464 41.0295C20.0446 40.9227 20.1647 40.8383 20.2983 40.7819C20.432 40.7255 20.5763 40.6984 20.7213 40.7025C20.865 40.6998 21.0076 40.728 21.1394 40.7852C21.2712 40.8425 21.3892 40.9274 21.4854 41.0342C21.5815 41.141 21.6536 41.2673 21.6966 41.4044C21.7397 41.5415 21.7528 41.6863 21.735 41.8289C21.7463 42.9553 21.735 44.0816 21.735 45.208Z" fill="white"/>
</g>
</svg>
