<svg width="70" height="72" viewBox="0 0 70 72" fill="none" xmlns="http://www.w3.org/2000/svg">
<g id="Group 879">
<path id="Vector" d="M35.8292 0.865608C37.1259 1.15579 38.3006 1.84102 39.1914 2.82686C39.6614 3.37676 40.0179 4.01429 40.2404 4.70266C40.4628 5.39103 40.5467 6.11662 40.4874 6.83759C40.428 7.55856 40.2264 8.26065 39.8944 8.90334C39.5623 9.54604 39.1063 10.1166 38.5526 10.5822C38.3758 10.7073 38.235 10.8767 38.1445 11.0734C38.054 11.2702 38.017 11.4873 38.037 11.7029C38.037 12.6667 38.037 13.6193 38.037 14.6504C38.3845 14.6504 38.6646 14.6504 38.956 14.6504H60.1039C60.6069 14.6366 61.1091 14.6971 61.5945 14.8297C62.2353 15.0294 62.7813 15.4561 63.13 16.0297C63.4787 16.6033 63.6062 17.2844 63.4885 17.9453C63.3827 18.6088 63.0457 19.2134 62.537 19.6524C62.0284 20.0913 61.3809 20.3361 60.7091 20.3436C59.9806 20.3436 59.2522 20.3436 58.4677 20.3436C58.5909 20.635 58.6582 20.8367 58.7591 21.0385C61.8746 27.9197 64.994 34.7934 68.117 41.6596C68.1657 41.83 68.2664 41.981 68.405 42.0915C68.5437 42.202 68.7133 42.2665 68.8903 42.276C69.0904 42.3041 69.2811 42.3788 69.447 42.4942C69.6129 42.6095 69.7493 42.7623 69.8453 42.94C69.9413 43.1178 69.9941 43.3157 69.9995 43.5177C70.005 43.7197 69.9628 43.9201 69.8765 44.1028C69.2347 45.5208 68.5202 46.9049 67.736 48.2494C67.38 48.8484 66.8645 49.3365 66.2469 49.6591C65.6294 49.9817 64.9343 50.1261 64.2393 50.0762C59.0093 50.0762 53.8055 50.0762 48.6278 50.0762C47.8077 50.1071 46.9973 49.8892 46.3033 49.4512C45.6092 49.0132 45.0639 48.3754 44.7389 47.6218C44.2346 46.6132 43.7191 45.6157 43.2147 44.6183C42.5871 43.3743 42.9458 42.6571 44.3355 42.2872C44.5372 42.2872 44.7277 41.9398 44.8286 41.7269L51.8218 26.3619C52.6063 24.6135 53.402 22.854 54.1977 21.1057C54.2874 20.904 54.3659 20.7023 54.4667 20.4557H38.0707V23.4256C38.0707 23.6834 38.0707 23.9299 38.0707 24.1877C38.0721 24.3255 38.0463 24.4622 37.9946 24.59C37.9429 24.7177 37.8663 24.834 37.7694 24.9319C37.6725 25.0299 37.5571 25.1077 37.4299 25.1608C37.3027 25.2138 37.1662 25.2412 37.0284 25.2411C36.749 25.2159 36.4892 25.0868 36.3004 24.8793C36.1115 24.6718 36.0074 24.401 36.0086 24.1204C36.0086 23.1118 36.0086 22.1031 36.0086 21.0945C36.0086 20.5678 36.0086 19.9738 36.0086 19.5031C35.9945 19.3477 36.0131 19.191 36.0631 19.0432C36.1131 18.8953 36.1934 18.7596 36.2989 18.6446C36.4044 18.5296 36.5327 18.4379 36.6757 18.3754C36.8187 18.3128 36.9732 18.2809 37.1293 18.2815H59.9918C60.2847 18.3227 60.5829 18.2998 60.866 18.2143C61.1013 18.091 61.4039 17.7548 61.3815 17.5531C61.3591 17.3513 61.0565 17.0039 60.81 16.847C60.5634 16.6901 60.3168 16.847 60.0591 16.847H37.6448C36.2999 16.847 35.9861 16.5332 35.9861 15.1883C35.9861 14.1573 35.9861 13.1262 35.9861 12.0952C35.9716 12.0433 35.9489 11.9941 35.9189 11.9495H34.0361V14.2133C34.0361 14.6504 34.0361 15.0763 34.0361 15.5134C34.0525 15.6745 34.0339 15.8373 33.9813 15.9905C33.9288 16.1438 33.8437 16.2838 33.7318 16.4009C33.62 16.5181 33.4841 16.6097 33.3335 16.6693C33.1828 16.7288 33.0211 16.7551 32.8593 16.7461C32.654 16.7574 32.4483 16.7574 32.243 16.7461H9.94074C9.69418 16.7461 9.39159 16.6677 9.20106 16.7461C8.92532 16.8974 8.72006 17.151 8.6295 17.4522C8.6295 17.6539 8.90968 17.9901 9.14503 18.1134C9.4319 18.1991 9.73387 18.2221 10.0304 18.1806H32.243C32.5154 18.1639 32.7886 18.1639 33.0611 18.1806C33.3169 18.192 33.5589 18.3002 33.7378 18.4833C33.9168 18.6665 34.0194 18.9108 34.0249 19.1669C34.0249 19.4022 34.0249 19.6264 34.0249 19.8617V58.7617H35.9301V29.6231C35.9131 29.3694 35.9131 29.1148 35.9301 28.8611C35.953 28.5863 36.0837 28.3319 36.2938 28.1533C36.5038 27.9748 36.776 27.8868 37.0508 27.9084C37.3075 27.9084 37.5538 28.0096 37.7363 28.19C37.9189 28.3705 38.0229 28.6156 38.0258 28.8723C38.0258 29.1412 38.0258 29.4214 38.0258 29.7016V58.7729H38.8103H45.12C45.6255 58.7246 46.1355 58.7884 46.6136 58.9598C47.0916 59.1312 47.526 59.406 47.8856 59.7646C48.2453 60.1232 48.5214 60.5567 48.6942 61.0343C48.867 61.5118 48.9324 62.0216 48.8856 62.5273V63.8722C49.5692 63.8722 50.208 63.8722 50.8356 63.973C51.6323 64.0385 52.3771 64.3942 52.9288 64.9727C53.4804 65.5512 53.8004 66.3122 53.8279 67.111C53.8279 68.0188 53.8279 68.9378 53.8279 69.8568C53.8279 70.7758 53.4469 71.1232 52.5167 71.1344H17.7185C16.4409 71.1344 16.1719 70.8542 16.1719 69.543C16.1719 68.8145 16.1719 68.0748 16.1719 67.3016C16.1502 66.4474 16.4624 65.6184 17.042 64.9907C17.6216 64.3629 18.4231 63.9858 19.2763 63.9394C19.8591 63.9394 20.453 63.9394 21.1255 63.9394V62.3368C21.1212 61.8729 21.2131 61.4131 21.3952 60.9864C21.5773 60.5597 21.8457 60.1753 22.1837 59.8574C22.5216 59.5395 22.9216 59.2949 23.3586 59.1391C23.7956 58.9834 24.2602 58.9197 24.723 58.9522C26.8523 58.9522 28.9929 58.9522 31.1222 58.9522H31.8955V20.4221H15.5891C15.7012 20.6798 15.7797 20.9152 15.8805 21.1393C18.9886 27.9607 22.0893 34.7896 25.1825 41.626C25.3506 41.9958 25.4963 42.2536 25.9894 42.3096C26.1953 42.3402 26.391 42.4193 26.5602 42.5405C26.7295 42.6617 26.8675 42.8214 26.9628 43.0065C27.058 43.1916 27.1079 43.3967 27.1082 43.6049C27.1084 43.813 27.0592 44.0183 26.9644 44.2036C26.3435 45.5818 25.6476 46.9249 24.8799 48.227C24.5194 48.8284 24.0004 49.319 23.3797 49.6452C22.759 49.9713 22.0606 50.1204 21.3608 50.0762C16.1308 50.0762 10.927 50.0762 5.74927 50.0762C4.92814 50.1047 4.11737 49.886 3.42199 49.4484C2.72661 49.0108 2.17868 48.3745 1.84918 47.6218C1.33365 46.5683 0.795708 45.5373 0.280179 44.495C0.124082 44.2869 0.0290253 44.0394 0.00566123 43.7803C-0.0177028 43.5212 0.0315486 43.2607 0.147897 43.028C0.264245 42.7953 0.443093 42.5996 0.664401 42.4628C0.885708 42.326 1.14073 42.2536 1.40089 42.2536C1.53651 42.1935 1.65884 42.1071 1.7608 41.9993C1.86276 41.8916 1.94233 41.7647 1.99487 41.626C4.77424 35.5293 7.54614 29.4289 10.3106 23.3247C10.7364 22.3721 11.1735 21.4195 11.6442 20.3772C10.7701 20.3772 10.0192 20.3772 9.26831 20.3772C8.58894 20.371 7.93521 20.117 7.4297 19.6631C6.9242 19.2092 6.60166 18.5865 6.52256 17.9117C6.4176 17.2606 6.55148 16.5935 6.89953 16.0333C7.24758 15.4732 7.78635 15.0576 8.41656 14.8633C8.90191 14.7307 9.40415 14.6702 9.90711 14.684H31.9404C31.9404 13.4849 31.9404 12.3529 31.9404 11.2098C31.8994 11.0366 31.7956 10.8848 31.649 10.7839C30.832 10.1165 30.22 9.23199 29.8834 8.23216C29.5468 7.23232 29.4993 6.15777 29.7463 5.13212C29.9933 4.10648 30.5249 3.17141 31.2798 2.43448C32.0348 1.69755 32.9824 1.18871 34.0137 0.966477C34.0767 0.943477 34.1368 0.913396 34.193 0.876818L35.8292 0.865608ZM23.1764 42.2312L13.5831 21.0945L3.97854 42.2312H23.1764ZM66.0325 42.2312L56.428 21.0945C53.1891 28.2335 50.0287 35.2155 46.8347 42.2312H66.0325ZM46.7674 64.0851V63.0541C46.7674 61.3282 46.4984 61.0592 44.7725 61.0592C38.4405 61.0592 32.1197 61.0592 25.7876 61.0592C23.1876 61.0592 23.1876 61.4626 23.2548 63.8161C23.2548 63.8834 23.2548 63.9506 23.3445 64.0963H24.0617C24.8014 64.0963 25.5299 64.0963 26.3032 64.1523C26.4253 64.1537 26.5459 64.1797 26.6578 64.2288C26.7696 64.2778 26.8704 64.349 26.9541 64.4379C27.0378 64.5269 27.1027 64.6318 27.1449 64.7464C27.1871 64.861 27.2058 64.983 27.1997 65.105C27.2231 65.347 27.154 65.589 27.0064 65.7823C26.8589 65.9756 26.6437 66.1059 26.404 66.1472C26.177 66.175 25.9474 66.175 25.7204 66.1472H19.691C19.0634 66.1472 18.503 66.349 18.3685 66.999C18.275 67.7125 18.2263 68.4311 18.2228 69.1507H51.7658V67.8843C51.7658 66.5731 51.3511 66.1472 50.0511 66.1472H31.5481C31.2765 66.1813 31.0016 66.1813 30.73 66.1472C30.4964 66.0947 30.2886 65.9617 30.1432 65.7715C29.9978 65.5812 29.924 65.3459 29.9347 65.1066C29.9454 64.8674 30.0399 64.6396 30.2017 64.4631C30.3635 64.2865 30.5823 64.1726 30.8196 64.1411C31.0921 64.1245 31.3653 64.1245 31.6378 64.1411H46.7674V64.0851ZM2.58885 44.3605C3.09317 45.3244 3.50784 46.1761 3.97854 47.0054C4.13134 47.2921 4.36146 47.5301 4.64277 47.6926C4.92408 47.855 5.24529 47.9353 5.56995 47.9244C10.9046 47.9244 16.2392 47.9244 21.5738 47.9244C21.8626 47.9025 22.144 47.8216 22.4004 47.6867C22.6567 47.5518 22.8827 47.3657 23.0643 47.1399C23.6379 46.2645 24.1437 45.3466 24.5773 44.3942L2.58885 44.3605ZM45.4562 44.3605C45.9157 45.2571 46.3079 46.0864 46.745 46.8821C46.8975 47.1942 47.1353 47.4567 47.4308 47.6392C47.7263 47.8217 48.0675 47.9167 48.4149 47.9132C53.7495 47.9132 59.0841 47.9132 64.4187 47.9132C64.6869 47.9008 64.95 47.8349 65.1925 47.7194C65.435 47.6039 65.652 47.4412 65.8308 47.2408C66.4297 46.3239 66.9687 45.3693 67.4446 44.3829L45.4562 44.3605ZM34.9887 9.82012C35.673 9.82217 36.3423 9.62015 36.9112 9.23986C37.48 8.85957 37.9226 8.3183 38.1822 7.68522C38.4419 7.05214 38.5069 6.35601 38.3689 5.6858C38.231 5.01559 37.8963 4.40174 37.4077 3.92271C36.9191 3.44367 36.2987 3.12121 35.6259 2.99654C34.9531 2.87187 34.2584 2.95064 33.6306 3.2228C33.0028 3.49496 32.4704 3.94814 32.1014 4.52441C31.7325 5.10069 31.5437 5.77389 31.5593 6.45798C31.6014 7.34765 31.9782 8.18853 32.6142 8.81206C33.2502 9.43559 34.0984 9.79567 34.9887 9.82012Z" fill="#486767"/>
</g>
</svg>
