<svg width="95" height="22" viewBox="0 0 95 22" fill="none" xmlns="http://www.w3.org/2000/svg">
<path id="Vector" d="M9.62425 21.5654L0.384991 12.0049C0.245002 11.8601 0.14561 11.7031 0.0868146 11.5341C0.0280193 11.3651 -0.000911385 11.1841 2.18734e-05 10.9909C2.18734e-05 10.7978 0.0294198 10.6167 0.0882151 10.4477C0.14701 10.2787 0.245936 10.1218 0.384991 9.97692L9.62425 0.416408C9.8809 0.150838 10.2019 0.0122592 10.5874 0.000670719C10.9728 -0.0109178 11.305 0.127661 11.5841 0.416408C11.8641 0.681978 12.0101 1.01418 12.0223 1.41302C12.0344 1.81186 11.9 2.15565 11.6191 2.4444L4.75964 9.54236H93.6001C93.9967 9.54236 94.3294 9.68142 94.5982 9.95954C94.867 10.2377 95.0009 10.5815 95 10.9909C95 11.4013 94.8661 11.7456 94.5982 12.0237C94.3304 12.3019 93.9977 12.4404 93.6001 12.4395H4.75964L11.6191 19.5374C11.8757 19.803 12.0101 20.141 12.0223 20.5514C12.0344 20.9619 11.9 21.2999 11.6191 21.5654C11.3624 21.8551 11.0358 22 10.6392 22C10.2425 22 9.90423 21.8551 9.62425 21.5654Z" fill="#332D2B"/>
</svg>
