<svg width="95" height="22" viewBox="0 0 95 22" fill="none" xmlns="http://www.w3.org/2000/svg">
<path id="Vector" d="M85.3757 0.434571L94.615 9.99509C94.755 10.1399 94.8544 10.2969 94.9132 10.4659C94.972 10.6349 95.0009 10.8159 95 11.0091C95 11.2022 94.9706 11.3833 94.9118 11.5523C94.853 11.7213 94.7541 11.8782 94.615 12.0231L85.3757 21.5836C85.1191 21.8492 84.7981 21.9877 84.4126 21.9993C84.0272 22.0109 83.695 21.8723 83.4159 21.5836C83.1359 21.318 82.9899 20.9858 82.9777 20.587C82.9656 20.1881 83.1 19.8444 83.3809 19.5556L90.2404 12.4576L1.39989 12.4577C1.00326 12.4577 0.670554 12.3186 0.401778 12.0405C0.132995 11.7623 -0.000931711 11.4186 6.66854e-06 11.0091C6.63266e-06 10.5987 0.133933 10.2544 0.401778 9.97626C0.669623 9.69814 1.00233 9.55956 1.39989 9.56053L90.2404 9.56052L83.3809 2.46256C83.1243 2.19699 82.9899 1.85899 82.9777 1.44857C82.9656 1.03814 83.1 0.700141 83.3809 0.434571C83.6376 0.144858 83.9642 9.64781e-07 84.3608 9.30106e-07C84.7575 8.95431e-07 85.0958 0.144858 85.3757 0.434571Z" fill="#D9D9D9"/>
</svg>
